<svg xmlns="http://www.w3.org/2000/svg" viewBox="0 0 1000 800" width="1000" height="800" style="background-color: white; font-family: monospace;">
  <rect x="20" y="20" width="960" height="760" fill="none" stroke="black" stroke-width="4"/>
  <rect x="750" y="650" width="230" height="130" fill="none" stroke="black" stroke-width="2"/>
  <line x1="750" y1="690" x2="980" y2="690" stroke="black" stroke-width="2"/>
  <text x="760" y="680" font-size="20" font-weight="bold">ELEVATION VIEW</text>
  <text x="760" y="720" font-size="14">PROJECT: 10' HEX PERGOLA</text>
  <text x="760" y="745" font-size="14">SCALE: N.T.S.</text>
  <text x="760" y="770" font-size="14">DATE: 2026-04-25</text>
  <g transform="translate(500, 700) scale(5)">
    <line x1="-80" y1="0" x2="80" y2="0" stroke="black" stroke-width="1.5"/>
    <line x1="-65" y1="0" x2="-65" y2="-105" stroke="#888" stroke-width="0.5"/>
    <line x1="-60" y1="0" x2="-70" y2="0" stroke="#888" stroke-width="0.5"/>
    <line x1="-60" y1="-80" x2="-70" y2="-80" stroke="#888" stroke-width="0.5"/>
    <line x1="-60" y1="-105" x2="-70" y2="-105" stroke="#888" stroke-width="0.5"/>
    <text x="-75" y="-40" font-size="5" text-anchor="middle" transform="rotate(-90 -75 -40)" fill="#555">8'-0" BEAM CLEARANCE</text>
    <text x="-75" y="-92.5" font-size="5" text-anchor="middle" transform="rotate(-90 -75 -92.5)" fill="#555">10'-6" PEAK HT</text>
    <rect x="-55" y="-5" width="10" height="5" fill="none" stroke="black" stroke-width="1"/>
    <rect x="45" y="-5" width="10" height="5" fill="none" stroke="black" stroke-width="1"/>
    <rect x="-30" y="-5" width="10" height="5" fill="none" stroke="black" stroke-width="0.5"/>
    <rect x="20" y="-5" width="10" height="5" fill="none" stroke="black" stroke-width="0.5"/>
    <rect x="-53" y="-80" width="6" height="75" fill="white" stroke="black" stroke-width="1.5"/>
    <rect x="47" y="-80" width="6" height="75" fill="white" stroke="black" stroke-width="1.5"/>
    <rect x="-28" y="-80" width="6" height="75" fill="white" stroke="black" stroke-width="0.5"/>
    <rect x="22" y="-80" width="6" height="75" fill="white" stroke="black" stroke-width="0.5"/>
    <rect x="-56" y="-88" width="112" height="8" fill="white" stroke="black" stroke-width="1.5"/>
    <polygon points="-50,-80 0,-76 50,-80" fill="none" stroke="black" stroke-width="0.5" stroke-dasharray="2,2"/>
    <line x1="-47" y1="-50" x2="-30" y2="-80" stroke="black" stroke-width="1.5"/>
    <line x1="-47" y1="-55" x2="-35" y2="-80" stroke="black" stroke-width="1.5"/>
    <line x1="47" y1="-50" x2="30" y2="-80" stroke="black" stroke-width="1.5"/>
    <line x1="47" y1="-55" x2="35" y2="-80" stroke="black" stroke-width="1.5"/>
    <rect x="-3" y="-105" width="6" height="20" fill="white" stroke="black" stroke-width="1.5"/>
    <polygon points="-3,-105 0,-108 3,-105" fill="white" stroke="black" stroke-width="1.5"/>
    <polygon points="-53,-88 -53,-91 -3,-105 -3,-102" fill="white" stroke="black" stroke-width="1.5"/>
    <polygon points="53,-88 53,-91 3,-105 3,-102" fill="white" stroke="black" stroke-width="1.5"/>
    <text x="15" y="-115" font-size="4" fill="black">6X6 KING POST HUB</text>
    <line x1="15" y1="-114" x2="5" y2="-102" stroke="black" stroke-width="0.3"/>
    <text x="60" y="-40" font-size="4" fill="black">6X6 ROUGH SAWN POST</text>
    <line x1="60" y1="-39" x2="53" y2="-45" stroke="black" stroke-width="0.3"/>
    <text x="-80" y="-60" font-size="4" fill="black">4X4 KNEE BRACES</text>
    <line x1="-60" y1="-59" x2="-45" y2="-52" stroke="black" stroke-width="0.3"/>
  </g>
</svg>
