<svg xmlns="http://www.w3.org/2000/svg" viewBox="0 0 1100 1050" width="1100" height="1050">
<!-- SHOP BLUEPRINT: ISOMETRIC VIEW — Parallel projection, member sizes, assembly sequence -->
<!-- SOURCE: geometry-calculations.json | scale=42px/ft | miter=28.71 | bevel=9.10 | pitch=4:12 -->
<!-- COORDINATE MAP: iso projection from architectural drawing-isometric-view.svg coordinates -->
<!-- TOPOLOGY_SKIP: Isometric 3D projection — post count governed by isometric visibility -->
<rect width="1100" height="1050" fill="white"/>

<defs>
  <pattern id="isoGrid" width="42" height="42" patternUnits="userSpaceOnUse">
    <path d="M 42 0 L 0 0 0 42" fill="none" stroke="#dbe8f5" stroke-width="0.5"/>
  </pattern>
  <marker id="bR" markerWidth="8" markerHeight="8" refX="7" refY="3" orient="auto">
    <path d="M0,0 L0,6 L8,3 z" fill="#1a3a6a"/>
  </marker>
  <marker id="bL" markerWidth="8" markerHeight="8" refX="1" refY="3" orient="auto-start-reverse">
    <path d="M8,0 L8,6 L0,3 z" fill="#1a3a6a"/>
  </marker>
</defs>
<rect width="1100" height="1050" fill="url(#isoGrid)"/>
<rect x="15" y="15" width="1070" height="1020" fill="none" stroke="#1a3a6a" stroke-width="2.5"/>
<rect x="30" y="30" width="1040" height="1020" fill="none" stroke="#1a3a6a" stroke-width="1"/>

<!-- Title block -->
<rect x="30" y="958" width="1040" height="87" fill="#e8eef8" stroke="#1a3a6a" stroke-width="1.5"/>
<line x1="30" y1="978" x2="1070" y2="978" stroke="#1a3a6a" stroke-width="1"/>
<line x1="550" y1="978" x2="550" y2="1045" stroke="#1a3a6a" stroke-width="1"/>
<text x="290" y="972" font-family="monospace" font-size="14" font-weight="bold" text-anchor="middle" fill="#1a3a6a">SHOP BLUEPRINT — ISOMETRIC ASSEMBLY VIEW</text>
<text x="290" y="994" font-family="monospace" font-size="12" text-anchor="middle" fill="#1a3a6a">10ft HEX CEDAR GAZEBO | Saanich BC | DWG NO: SB-03</text>
<text x="290" y="1010" font-family="monospace" font-size="12" text-anchor="middle" fill="#1a3a6a">Parallel projection | #s = assembly sequence | Date: 2026-04-25</text>
<text x="290" y="1026" font-family="monospace" font-size="12" text-anchor="middle" fill="#1a3a6a">Miter: 28.7° | Bevel: 9.10° | Pitch: 4:12</text>
<text x="810" y="994" font-family="monospace" font-size="12" text-anchor="middle" fill="#1a3a6a">ASSEMBLY SEQUENCE (see assembly guide)</text>
<text x="810" y="1010" font-family="monospace" font-size="12" text-anchor="middle" fill="#1a3a6a">1. Caissons + piers  2. Posts  3. Beam ring</text>
<text x="810" y="1026" font-family="monospace" font-size="12" text-anchor="middle" fill="#1a3a6a">4. Knee braces  5. Hip rafters  6. Hub  7. Purlin</text>

<!-- Page heading -->
<text x="40" y="56" font-family="monospace" font-size="20" font-weight="bold" fill="#1a3a6a">ISOMETRIC ASSEMBLY VIEW</text>
<text x="40" y="76" font-family="monospace" font-size="13" fill="#4a7aaa">Blueprint colouring: depth coded — darker = closer to viewer</text>

<!-- GROUND PLANE HEX (pale fill, Blueprint style) -->
<polygon points="550,545 732,440 732,650 550,755 368,650 368,440"
         fill="#eef3fa" stroke="#4a7aaa" stroke-width="1.5" stroke-dasharray="5,3"/>

<!-- PIER BLOCKS (grade level) — 6 positions -->
<rect x="535" y="545" width="30" height="14" fill="#c8c9d0" stroke="#1a3a6a" stroke-width="1.5"/>
<rect x="717" y="648" width="30" height="14" fill="#c8c9d0" stroke="#1a3a6a" stroke-width="1.5"/>
<rect x="717" y="755" width="30" height="14" fill="#c8c9d0" stroke="#1a3a6a" stroke-width="1.5"/>
<rect x="535" y="850" width="30" height="14" fill="#c8c9d0" stroke="#1a3a6a" stroke-width="1.5"/>
<rect x="353" y="755" width="30" height="14" fill="#c8c9d0" stroke="#1a3a6a" stroke-width="1.5"/>
<rect x="353" y="648" width="30" height="14" fill="#c8c9d0" stroke="#1a3a6a" stroke-width="1.5"/>
<text x="555" y="560" font-family="monospace" font-size="9" fill="#1a3a6a">1</text>

<!-- POSTS — 6 vertical, cedar fill, depth-coded stroke weight -->
<!-- P1 (top/back) lighter -->
<rect x="539" y="195" width="22" height="350" fill="#c8a96e" stroke="#5a7aaa" stroke-width="1.5"/>
<text x="556" y="193" font-family="monospace" font-size="11" fill="#1a3a6a">P1</text>
<text x="556" y="210" font-family="monospace" font-size="9" fill="#1a3a6a">2</text>
<!-- P2 (right/back) lighter -->
<rect x="717" y="300" width="22" height="350" fill="#b8986e" stroke="#5a7aaa" stroke-width="1.5"/>
<text x="745" y="302" font-family="monospace" font-size="11" fill="#1a3a6a">P2  2</text>
<!-- P3 (right/front) darker -->
<rect x="717" y="408" width="22" height="350" fill="#a87858" stroke="#1a3a6a" stroke-width="2.5"/>
<text x="745" y="420" font-family="monospace" font-size="11" fill="#1a3a6a">P3  2</text>
<!-- P4 (bottom/front) darkest -->
<rect x="539" y="510" width="22" height="350" fill="#986848" stroke="#1a3a6a" stroke-width="2.5"/>
<text x="556" y="870" font-family="monospace" font-size="11" fill="#1a3a6a">P4  2</text>
<!-- P5 (left/front) darker -->
<rect x="357" y="408" width="22" height="350" fill="#a87858" stroke="#1a3a6a" stroke-width="2.5"/>
<text x="315" y="420" font-family="monospace" font-size="11" fill="#1a3a6a">P5  2</text>
<!-- P6 (left/back) lighter -->
<rect x="357" y="300" width="22" height="350" fill="#b8986e" stroke="#5a7aaa" stroke-width="1.5"/>
<text x="315" y="302" font-family="monospace" font-size="11" fill="#1a3a6a">P6  2</text>

<!-- BEAM RING — hex outline at post tops, heavy line weight -->
<polygon points="550,195 732,300 732,408 550,510 368,408 368,300"
         fill="none" stroke="#1a3a6a" stroke-width="9"/>
<text x="735" y="356" font-family="monospace" font-size="10" fill="#1a3a6a">3</text>

<!-- KNEE BRACES — 12 total -->
<line x1="550" y1="310" x2="484" y2="215" stroke="#8B5A2B" stroke-width="5" stroke-linecap="round"/>
<line x1="550" y1="310" x2="616" y2="218" stroke="#8B5A2B" stroke-width="5" stroke-linecap="round"/>
<line x1="732" y1="418" x2="656" y2="328" stroke="#5a3a1a" stroke-width="4" stroke-linecap="round"/>
<line x1="732" y1="418" x2="808" y2="330" stroke="#5a3a1a" stroke-width="4" stroke-linecap="round"/>
<line x1="732" y1="525" x2="808" y2="437" stroke="#5a3a1a" stroke-width="4" stroke-linecap="round"/>
<line x1="732" y1="525" x2="656" y2="436" stroke="#5a3a1a" stroke-width="4" stroke-linecap="round"/>
<line x1="550" y1="628" x2="616" y2="543" stroke="#8B5A2B" stroke-width="5" stroke-linecap="round"/>
<line x1="550" y1="628" x2="484" y2="540" stroke="#8B5A2B" stroke-width="5" stroke-linecap="round"/>
<line x1="368" y1="525" x2="292" y2="437" stroke="#7a5a3a" stroke-width="4" stroke-linecap="round"/>
<line x1="368" y1="525" x2="444" y2="436" stroke="#7a5a3a" stroke-width="4" stroke-linecap="round"/>
<line x1="368" y1="418" x2="444" y2="328" stroke="#7a5a3a" stroke-width="4" stroke-linecap="round"/>
<line x1="368" y1="418" x2="292" y2="330" stroke="#7a5a3a" stroke-width="4" stroke-linecap="round"/>
<text x="557" y="275" font-family="monospace" font-size="9" fill="#8B5A2B">4</text>

<!-- HIP RAFTERS — 6 to hub -->
<line x1="550" y1="195" x2="550" y2="120" stroke="#1a3a6a" stroke-width="7" stroke-linecap="round"/>
<line x1="732" y1="300" x2="550" y2="120" stroke="#3a5a8a" stroke-width="7" stroke-linecap="round"/>
<line x1="732" y1="408" x2="550" y2="120" stroke="#3a5a8a" stroke-width="7" stroke-linecap="round"/>
<line x1="550" y1="510" x2="550" y2="120" stroke="#1a3a6a" stroke-width="7" stroke-linecap="round"/>
<line x1="368" y1="408" x2="550" y2="120" stroke="#5a7aaa" stroke-width="6" stroke-linecap="round"/>
<line x1="368" y1="300" x2="550" y2="120" stroke="#5a7aaa" stroke-width="6" stroke-linecap="round"/>
<text x="558" y="138" font-family="monospace" font-size="9" fill="#1a3a6a">5</text>

<!-- Purlin ring midpoint -->
<polygon points="550,158 641,209 641,264 550,320 459,264 459,209"
         fill="none" stroke="#4a7aaa" stroke-width="3"/>
<text x="648" y="215" font-family="monospace" font-size="9" fill="#4a7aaa">7</text>

<!-- King post hub at apex -->
<rect x="535" y="107" width="30" height="30" fill="#c8a96e" stroke="#1a3a6a" stroke-width="2.5"/>
<text x="550" y="103" font-family="monospace" font-size="10" text-anchor="middle" fill="#1a3a6a">HUB 6</text>

<!-- Member size callout leaders -->
<text x="820" y="150" font-family="monospace" font-size="12" fill="#1a3a6a">4×6 HIP RAFTER</text>
<line x1="818" y1="153" x2="693" y2="190" stroke="#1a3a6a" stroke-width="1"/>
<text x="820" y="175" font-family="monospace" font-size="12" fill="#1a3a6a">Cut: 5'-4" + 12" OH</text>
<text x="820" y="290" font-family="monospace" font-size="12" fill="#1a3a6a">4×8 BEAM (×6)</text>
<line x1="818" y1="293" x2="754" y2="305" stroke="#1a3a6a" stroke-width="1"/>
<text x="820" y="308" font-family="monospace" font-size="12" fill="#1a3a6a">Cut: 5'-3" each</text>
<text x="820" y="420" font-family="monospace" font-size="12" fill="#1a3a6a">6×6 POST (×6)</text>
<line x1="818" y1="423" x2="754" y2="430" stroke="#1a3a6a" stroke-width="1"/>
<text x="820" y="438" font-family="monospace" font-size="12" fill="#1a3a6a">Cut: 8'-4"</text>
<text x="820" y="540" font-family="monospace" font-size="12" fill="#8B5A2B">4×4 BRACE (×12)</text>
<line x1="818" y1="543" x2="616" y2="490" stroke="#8B5A2B" stroke-width="1"/>
<text x="820" y="558" font-family="monospace" font-size="12" fill="#8B5A2B">Cut: 36" @ 45°</text>
<text x="820" y="640" font-family="monospace" font-size="12" fill="#4a7aaa">PURLIN (×6)</text>
<line x1="818" y1="643" x2="650" y2="620" stroke="#4a7aaa" stroke-width="1"/>
<text x="820" y="658" font-family="monospace" font-size="12" fill="#4a7aaa">4×4, cut to fit ~3'-3"</text>
<text x="816" y="120" font-family="monospace" font-size="12" fill="#1a3a6a">6×6 HUB (×1)</text>
<line x1="815" y1="123" x2="565" y2="120" stroke="#1a3a6a" stroke-width="1"/>
<text x="816" y="138" font-family="monospace" font-size="12" fill="#1a3a6a">Cut: 24"</text>
</svg>
