<?xml version="1.0" encoding="UTF-8"?>
<!-- GENERATED_BY: render_drawings.py INPUT_HASH: 6a3a31093913173981deb71e2e0b9148147dfe6aba97ba5347db7fd1c3ea4d61 -->
<svg xmlns="http://www.w3.org/2000/svg" viewBox="0 0 1600 1200" width="1600" height="1200">
    <defs>
        <marker id="arrowhead" viewBox="0 0 10 10" refX="0" refY="5" markerWidth="6" markerHeight="6" orient="auto-start-reverse">
            <path d="M 0 0 L 10 5 L 0 10 z" fill="#3d5a80" />
        </marker>
    </defs>
    <rect width="100%" height="100%" fill="#12253a" />
    <defs>
        <pattern id="blueprint-grid" width="50" height="50" patternUnits="userSpaceOnUse">
            <path d="M 50 0 L 0 0 0 50" fill="none" stroke="#00e5ff" stroke-width="0.5" opacity="0.08" />
        </pattern>
    </defs>
    <rect width="100%" height="100%" fill="url(#blueprint-grid)" />
    <rect x="20" y="20" width="1560" height="1160" fill="none" stroke="#00e5ff" stroke-width="2.2" opacity="0.8" />
    <rect x="26" y="26" width="1548" height="1148" fill="none" stroke="#00e5ff" stroke-width="0.8" opacity="0.8" />
    <polygon data-role="footing" data-id="FT1" points="1230.0,590.0 1230.0,510.0 1230.0,510.0 1230.0,590.0" fill="#183050" stroke="#ffffff" stroke-width="1.2" stroke-dasharray="3,3" opacity="0.6" />
    <polygon points="1150.0,590.0 1150.0,590.0 1150.0,510.0 1150.0,510.0" fill="#0d1e30" stroke="#ffffff" stroke-width="1.2" stroke-dasharray="3,3" opacity="0.6" />
    <polygon points="1150.0,590.0 1230.0,590.0 1230.0,590.0 1150.0,590.0" fill="#122440" stroke="#ffffff" stroke-width="1.2" stroke-dasharray="3,3" opacity="0.6" />
    <polygon points="1150.0,510.0 1150.0,510.0 1230.0,510.0 1230.0,510.0" fill="#0e1e34" stroke="#ffffff" stroke-width="1.2" stroke-dasharray="3,3" opacity="0.6" />
    <polygon data-role="footing" data-id="FT2" points="1035.0,927.7 1035.0,847.7 1035.0,847.7 1035.0,927.7" fill="#183050" stroke="#ffffff" stroke-width="1.2" stroke-dasharray="3,3" opacity="0.6" />
    <polygon points="955.0,927.7 955.0,927.7 955.0,847.7 955.0,847.7" fill="#0d1e30" stroke="#ffffff" stroke-width="1.2" stroke-dasharray="3,3" opacity="0.6" />
    <polygon points="955.0,927.7 1035.0,927.7 1035.0,927.7 955.0,927.7" fill="#122440" stroke="#ffffff" stroke-width="1.2" stroke-dasharray="3,3" opacity="0.6" />
    <polygon points="955.0,847.7 955.0,847.7 1035.0,847.7 1035.0,847.7" fill="#0e1e34" stroke="#ffffff" stroke-width="1.2" stroke-dasharray="3,3" opacity="0.6" />
    <polygon data-role="footing" data-id="FT3" points="645.0,927.7 645.0,847.7 645.0,847.7 645.0,927.7" fill="#183050" stroke="#ffffff" stroke-width="1.2" stroke-dasharray="3,3" opacity="0.6" />
    <polygon points="565.0,927.7 565.0,927.7 565.0,847.7 565.0,847.7" fill="#0d1e30" stroke="#ffffff" stroke-width="1.2" stroke-dasharray="3,3" opacity="0.6" />
    <polygon points="565.0,927.7 645.0,927.7 645.0,927.7 565.0,927.7" fill="#122440" stroke="#ffffff" stroke-width="1.2" stroke-dasharray="3,3" opacity="0.6" />
    <polygon points="565.0,847.7 565.0,847.7 645.0,847.7 645.0,847.7" fill="#0e1e34" stroke="#ffffff" stroke-width="1.2" stroke-dasharray="3,3" opacity="0.6" />
    <polygon data-role="footing" data-id="FT4" points="450.0,590.0 450.0,510.0 450.0,510.0 450.0,590.0" fill="#183050" stroke="#ffffff" stroke-width="1.2" stroke-dasharray="3,3" opacity="0.6" />
    <polygon points="370.0,590.0 370.0,590.0 370.0,510.0 370.0,510.0" fill="#0d1e30" stroke="#ffffff" stroke-width="1.2" stroke-dasharray="3,3" opacity="0.6" />
    <polygon points="370.0,590.0 450.0,590.0 450.0,590.0 370.0,590.0" fill="#122440" stroke="#ffffff" stroke-width="1.2" stroke-dasharray="3,3" opacity="0.6" />
    <polygon points="370.0,510.0 370.0,510.0 450.0,510.0 450.0,510.0" fill="#0e1e34" stroke="#ffffff" stroke-width="1.2" stroke-dasharray="3,3" opacity="0.6" />
    <polygon data-role="footing" data-id="FT5" points="645.0,252.3 645.0,172.3 645.0,172.3 645.0,252.3" fill="#183050" stroke="#ffffff" stroke-width="1.2" stroke-dasharray="3,3" opacity="0.6" />
    <polygon points="565.0,252.3 565.0,252.3 565.0,172.3 565.0,172.3" fill="#0d1e30" stroke="#ffffff" stroke-width="1.2" stroke-dasharray="3,3" opacity="0.6" />
    <polygon points="565.0,252.3 645.0,252.3 645.0,252.3 565.0,252.3" fill="#122440" stroke="#ffffff" stroke-width="1.2" stroke-dasharray="3,3" opacity="0.6" />
    <polygon points="565.0,172.3 565.0,172.3 645.0,172.3 645.0,172.3" fill="#0e1e34" stroke="#ffffff" stroke-width="1.2" stroke-dasharray="3,3" opacity="0.6" />
    <polygon data-role="footing" data-id="FT6" points="1035.0,252.3 1035.0,172.3 1035.0,172.3 1035.0,252.3" fill="#183050" stroke="#ffffff" stroke-width="1.2" stroke-dasharray="3,3" opacity="0.6" />
    <polygon points="955.0,252.3 955.0,252.3 955.0,172.3 955.0,172.3" fill="#0d1e30" stroke="#ffffff" stroke-width="1.2" stroke-dasharray="3,3" opacity="0.6" />
    <polygon points="955.0,252.3 1035.0,252.3 1035.0,252.3 955.0,252.3" fill="#122440" stroke="#ffffff" stroke-width="1.2" stroke-dasharray="3,3" opacity="0.6" />
    <polygon points="955.0,172.3 955.0,172.3 1035.0,172.3 1035.0,172.3" fill="#0e1e34" stroke="#ffffff" stroke-width="1.2" stroke-dasharray="3,3" opacity="0.6" />
    <polygon points="1150.0,590.0 1230.0,590.0 1230.0,510.0 1150.0,510.0" fill="#162c4e" stroke="#ffffff" stroke-width="1.2" stroke-dasharray="3,3" opacity="0.6" />
    <polygon points="955.0,927.7 1035.0,927.7 1035.0,847.7 955.0,847.7" fill="#162c4e" stroke="#ffffff" stroke-width="1.2" stroke-dasharray="3,3" opacity="0.6" />
    <polygon points="565.0,927.7 645.0,927.7 645.0,847.7 565.0,847.7" fill="#162c4e" stroke="#ffffff" stroke-width="1.2" stroke-dasharray="3,3" opacity="0.6" />
    <polygon points="370.0,590.0 450.0,590.0 450.0,510.0 370.0,510.0" fill="#162c4e" stroke="#ffffff" stroke-width="1.2" stroke-dasharray="3,3" opacity="0.6" />
    <polygon points="565.0,252.3 645.0,252.3 645.0,172.3 565.0,172.3" fill="#162c4e" stroke="#ffffff" stroke-width="1.2" stroke-dasharray="3,3" opacity="0.6" />
    <polygon points="955.0,252.3 1035.0,252.3 1035.0,172.3 955.0,172.3" fill="#162c4e" stroke="#ffffff" stroke-width="1.2" stroke-dasharray="3,3" opacity="0.6" />
    <polygon data-role="post" data-id="P1" points="1208.3,568.3 1208.3,531.7 1208.3,531.7 1208.3,568.3" fill="#1e4272" stroke="#ffffff" stroke-width="1.5" />
    <polygon points="1171.7,568.3 1171.7,568.3 1171.7,531.7 1171.7,531.7" fill="#0d1e30" stroke="#ffffff" stroke-width="1.5" />
    <polygon points="1171.7,568.3 1208.3,568.3 1208.3,568.3 1171.7,568.3" fill="#162e50" stroke="#ffffff" stroke-width="1.5" />
    <polygon points="1171.7,531.7 1171.7,531.7 1208.3,531.7 1208.3,531.7" fill="#0f2238" stroke="#ffffff" stroke-width="1.5" />
    <polygon data-role="post" data-id="P2" points="1013.3,906.1 1013.3,869.4 1013.3,869.4 1013.3,906.1" fill="#1e4272" stroke="#ffffff" stroke-width="1.5" />
    <polygon points="976.7,906.1 976.7,906.1 976.7,869.4 976.7,869.4" fill="#0d1e30" stroke="#ffffff" stroke-width="1.5" />
    <polygon points="976.7,906.1 1013.3,906.1 1013.3,906.1 976.7,906.1" fill="#162e50" stroke="#ffffff" stroke-width="1.5" />
    <polygon points="976.7,869.4 976.7,869.4 1013.3,869.4 1013.3,869.4" fill="#0f2238" stroke="#ffffff" stroke-width="1.5" />
    <polygon data-role="post" data-id="P3" points="623.3,906.1 623.3,869.4 623.3,869.4 623.3,906.1" fill="#1e4272" stroke="#ffffff" stroke-width="1.5" />
    <polygon points="586.7,906.1 586.7,906.1 586.7,869.4 586.7,869.4" fill="#0d1e30" stroke="#ffffff" stroke-width="1.5" />
    <polygon points="586.7,906.1 623.3,906.1 623.3,906.1 586.7,906.1" fill="#162e50" stroke="#ffffff" stroke-width="1.5" />
    <polygon points="586.7,869.4 586.7,869.4 623.3,869.4 623.3,869.4" fill="#0f2238" stroke="#ffffff" stroke-width="1.5" />
    <polygon data-role="post" data-id="P4" points="428.3,568.3 428.3,531.7 428.3,531.7 428.3,568.3" fill="#1e4272" stroke="#ffffff" stroke-width="1.5" />
    <polygon points="391.7,568.3 391.7,568.3 391.7,531.7 391.7,531.7" fill="#0d1e30" stroke="#ffffff" stroke-width="1.5" />
    <polygon points="391.7,568.3 428.3,568.3 428.3,568.3 391.7,568.3" fill="#162e50" stroke="#ffffff" stroke-width="1.5" />
    <polygon points="391.7,531.7 391.7,531.7 428.3,531.7 428.3,531.7" fill="#0f2238" stroke="#ffffff" stroke-width="1.5" />
    <polygon data-role="post" data-id="P5" points="623.3,230.6 623.3,193.9 623.3,193.9 623.3,230.6" fill="#1e4272" stroke="#ffffff" stroke-width="1.5" />
    <polygon points="586.7,230.6 586.7,230.6 586.7,193.9 586.7,193.9" fill="#0d1e30" stroke="#ffffff" stroke-width="1.5" />
    <polygon points="586.7,230.6 623.3,230.6 623.3,230.6 586.7,230.6" fill="#162e50" stroke="#ffffff" stroke-width="1.5" />
    <polygon points="586.7,193.9 586.7,193.9 623.3,193.9 623.3,193.9" fill="#0f2238" stroke="#ffffff" stroke-width="1.5" />
    <polygon data-role="post" data-id="P6" points="1013.3,230.6 1013.3,193.9 1013.3,193.9 1013.3,230.6" fill="#1e4272" stroke="#ffffff" stroke-width="1.5" />
    <polygon points="976.7,230.6 976.7,230.6 976.7,193.9 976.7,193.9" fill="#0d1e30" stroke="#ffffff" stroke-width="1.5" />
    <polygon points="976.7,230.6 1013.3,230.6 1013.3,230.6 976.7,230.6" fill="#162e50" stroke="#ffffff" stroke-width="1.5" />
    <polygon points="976.7,193.9 976.7,193.9 1013.3,193.9 1013.3,193.9" fill="#0f2238" stroke="#ffffff" stroke-width="1.5" />
    <polygon points="1171.7,568.3 1208.3,568.3 1208.3,531.7 1171.7,531.7" fill="#1a3560" stroke="#ffffff" stroke-width="1.5" />
    <polygon points="976.7,906.1 1013.3,906.1 1013.3,869.4 976.7,869.4" fill="#1a3560" stroke="#ffffff" stroke-width="1.5" />
    <polygon points="586.7,906.1 623.3,906.1 623.3,869.4 586.7,869.4" fill="#1a3560" stroke="#ffffff" stroke-width="1.5" />
    <polygon points="391.7,568.3 428.3,568.3 428.3,531.7 391.7,531.7" fill="#1a3560" stroke="#ffffff" stroke-width="1.5" />
    <polygon points="586.7,230.6 623.3,230.6 623.3,193.9 586.7,193.9" fill="#1a3560" stroke="#ffffff" stroke-width="1.5" />
    <polygon points="976.7,230.6 1013.3,230.6 1013.3,193.9 976.7,193.9" fill="#1a3560" stroke="#ffffff" stroke-width="1.5" />
    <polygon data-role="brace" data-id="Brace0a" points="1186.8,578.9 1195.1,564.6 1124.4,687.0 1116.1,701.3" fill="#132440" stroke="#ffffff" stroke-width="1.5" />
    <polygon points="1166.6,567.2 1095.9,689.7 1104.1,675.4 1174.9,552.9" fill="#0e1e34" stroke="#ffffff" stroke-width="1.5" />
    <polygon data-role="brace" data-id="Brace0b" points="998.2,858.9 989.9,873.2 1060.6,750.7 1068.9,736.4" fill="#132440" stroke="#ffffff" stroke-width="1.5" />
    <polygon points="1018.4,870.6 1089.1,748.1 1080.9,762.4 1010.1,884.9" fill="#0e1e34" stroke="#ffffff" stroke-width="1.5" />
    <polygon data-role="brace" data-id="Brace1a" points="968.4,899.4 984.9,899.4 843.5,899.4 827.0,899.4" fill="#132440" stroke="#ffffff" stroke-width="1.5" />
    <polygon points="968.4,876.1 827.0,876.1 843.5,876.1 984.9,876.1" fill="#0e1e34" stroke="#ffffff" stroke-width="1.5" />
    <polygon data-role="brace" data-id="Brace1b" points="631.6,876.1 615.1,876.1 756.5,876.1 773.0,876.1" fill="#132440" stroke="#ffffff" stroke-width="1.5" />
    <polygon points="631.6,899.4 773.0,899.4 756.5,899.4 615.1,899.4" fill="#0e1e34" stroke="#ffffff" stroke-width="1.5" />
    <polygon data-role="brace" data-id="Brace2a" points="581.6,870.6 589.9,884.9 519.1,762.4 510.9,748.1" fill="#132440" stroke="#ffffff" stroke-width="1.5" />
    <polygon points="601.8,858.9 531.1,736.4 539.4,750.7 610.1,873.2" fill="#0e1e34" stroke="#ffffff" stroke-width="1.5" />
    <polygon data-role="brace" data-id="Brace2b" points="433.4,567.2 425.1,552.9 495.9,675.4 504.1,689.7" fill="#132440" stroke="#ffffff" stroke-width="1.5" />
    <polygon points="413.2,578.9 483.9,701.3 475.6,687.0 404.9,564.6" fill="#0e1e34" stroke="#ffffff" stroke-width="1.5" />
    <polygon data-role="brace" data-id="Brace3a" points="413.2,521.1 404.9,535.4 475.6,413.0 483.9,398.7" fill="#132440" stroke="#ffffff" stroke-width="1.5" />
    <polygon points="433.4,532.8 504.1,410.3 495.9,424.6 425.1,547.1" fill="#0e1e34" stroke="#ffffff" stroke-width="1.5" />
    <polygon data-role="brace" data-id="Brace3b" points="601.8,241.1 610.1,226.8 539.4,349.3 531.1,363.6" fill="#132440" stroke="#ffffff" stroke-width="1.5" />
    <polygon points="581.6,229.4 510.9,351.9 519.1,337.6 589.9,215.1" fill="#0e1e34" stroke="#ffffff" stroke-width="1.5" />
    <polygon data-role="brace" data-id="Brace4a" points="631.6,200.6 615.1,200.6 756.5,200.6 773.0,200.6" fill="#132440" stroke="#ffffff" stroke-width="1.5" />
    <polygon points="631.6,223.9 773.0,223.9 756.5,223.9 615.1,223.9" fill="#0e1e34" stroke="#ffffff" stroke-width="1.5" />
    <polygon data-role="brace" data-id="Brace4b" points="968.4,223.9 984.9,223.9 843.5,223.9 827.0,223.9" fill="#132440" stroke="#ffffff" stroke-width="1.5" />
    <polygon points="968.4,200.6 827.0,200.6 843.5,200.6 984.9,200.6" fill="#0e1e34" stroke="#ffffff" stroke-width="1.5" />
    <polygon data-role="brace" data-id="Brace5a" points="1018.4,229.4 1010.1,215.1 1080.9,337.6 1089.1,351.9" fill="#132440" stroke="#ffffff" stroke-width="1.5" />
    <polygon points="998.2,241.1 1068.9,363.6 1060.6,349.3 989.9,226.8" fill="#0e1e34" stroke="#ffffff" stroke-width="1.5" />
    <polygon data-role="brace" data-id="Brace5b" points="1166.6,532.8 1174.9,547.1 1104.1,424.6 1095.9,410.3" fill="#132440" stroke="#ffffff" stroke-width="1.5" />
    <polygon points="1186.8,521.1 1116.1,398.7 1124.4,413.0 1195.1,535.4" fill="#0e1e34" stroke="#ffffff" stroke-width="1.5" />
    <polygon points="1195.1,564.6 1174.9,552.9 1104.1,675.4 1124.4,687.0" fill="#1b3760" stroke="#ffffff" stroke-width="1.5" />
    <polygon points="989.9,873.2 1010.1,884.9 1080.9,762.4 1060.6,750.7" fill="#1b3760" stroke="#ffffff" stroke-width="1.5" />
    <polygon points="984.9,899.4 984.9,876.1 843.5,876.1 843.5,899.4" fill="#1b3760" stroke="#ffffff" stroke-width="1.5" />
    <polygon points="615.1,876.1 615.1,899.4 756.5,899.4 756.5,876.1" fill="#1b3760" stroke="#ffffff" stroke-width="1.5" />
    <polygon points="589.9,884.9 610.1,873.2 539.4,750.7 519.1,762.4" fill="#1b3760" stroke="#ffffff" stroke-width="1.5" />
    <polygon points="425.1,552.9 404.9,564.6 475.6,687.0 495.9,675.4" fill="#1b3760" stroke="#ffffff" stroke-width="1.5" />
    <polygon points="404.9,535.4 425.1,547.1 495.9,424.6 475.6,413.0" fill="#1b3760" stroke="#ffffff" stroke-width="1.5" />
    <polygon points="610.1,226.8 589.9,215.1 519.1,337.6 539.4,349.3" fill="#1b3760" stroke="#ffffff" stroke-width="1.5" />
    <polygon points="615.1,200.6 615.1,223.9 756.5,223.9 756.5,200.6" fill="#1b3760" stroke="#ffffff" stroke-width="1.5" />
    <polygon points="984.9,223.9 984.9,200.6 843.5,200.6 843.5,223.9" fill="#1b3760" stroke="#ffffff" stroke-width="1.5" />
    <polygon points="1010.1,215.1 989.9,226.8 1060.6,349.3 1080.9,337.6" fill="#1b3760" stroke="#ffffff" stroke-width="1.5" />
    <polygon points="1174.9,547.1 1195.1,535.4 1124.4,413.0 1104.1,424.6" fill="#1b3760" stroke="#ffffff" stroke-width="1.5" />
    <polygon points="1116.1,701.3 1124.4,687.0 1104.1,675.4 1095.9,689.7" fill="#162c4e" stroke="#ffffff" stroke-width="1.5" />
    <polygon points="1068.9,736.4 1060.6,750.7 1080.9,762.4 1089.1,748.1" fill="#162c4e" stroke="#ffffff" stroke-width="1.5" />
    <polygon points="827.0,899.4 843.5,899.4 843.5,876.1 827.0,876.1" fill="#162c4e" stroke="#ffffff" stroke-width="1.5" />
    <polygon points="773.0,876.1 756.5,876.1 756.5,899.4 773.0,899.4" fill="#162c4e" stroke="#ffffff" stroke-width="1.5" />
    <polygon points="510.9,748.1 519.1,762.4 539.4,750.7 531.1,736.4" fill="#162c4e" stroke="#ffffff" stroke-width="1.5" />
    <polygon points="504.1,689.7 495.9,675.4 475.6,687.0 483.9,701.3" fill="#162c4e" stroke="#ffffff" stroke-width="1.5" />
    <polygon points="483.9,398.7 475.6,413.0 495.9,424.6 504.1,410.3" fill="#162c4e" stroke="#ffffff" stroke-width="1.5" />
    <polygon points="531.1,363.6 539.4,349.3 519.1,337.6 510.9,351.9" fill="#162c4e" stroke="#ffffff" stroke-width="1.5" />
    <polygon points="773.0,200.6 756.5,200.6 756.5,223.9 773.0,223.9" fill="#162c4e" stroke="#ffffff" stroke-width="1.5" />
    <polygon points="827.0,223.9 843.5,223.9 843.5,200.6 827.0,200.6" fill="#162c4e" stroke="#ffffff" stroke-width="1.5" />
    <polygon points="1089.1,351.9 1080.9,337.6 1060.6,349.3 1068.9,363.6" fill="#162c4e" stroke="#ffffff" stroke-width="1.5" />
    <polygon points="1095.9,410.3 1104.1,424.6 1124.4,413.0 1116.1,398.7" fill="#162c4e" stroke="#ffffff" stroke-width="1.5" />
    <polygon data-role="beam" data-id="B1" points="1207.3,560.0 1207.3,560.0 1012.3,897.7 1012.3,897.7" fill="#122840" stroke="#ffffff" stroke-width="1.5" />
    <polygon points="1172.7,540.0 977.7,877.7 977.7,877.7 1172.7,540.0" fill="#0d2035" stroke="#ffffff" stroke-width="1.5" />
    <polygon points="1207.3,560.0 1172.7,540.0 1172.7,540.0 1207.3,560.0" fill="#162e4e" stroke="#ffffff" stroke-width="1.5" />
    <polygon points="1012.3,897.7 1012.3,897.7 977.7,877.7 977.7,877.7" fill="#162e4e" stroke="#ffffff" stroke-width="1.5" />
    <polygon data-role="beam" data-id="B2" points="995.0,907.7 995.0,907.7 605.0,907.7 605.0,907.7" fill="#122840" stroke="#ffffff" stroke-width="1.5" />
    <polygon points="995.0,867.7 605.0,867.7 605.0,867.7 995.0,867.7" fill="#0d2035" stroke="#ffffff" stroke-width="1.5" />
    <polygon points="995.0,907.7 995.0,867.7 995.0,867.7 995.0,907.7" fill="#162e4e" stroke="#ffffff" stroke-width="1.5" />
    <polygon points="605.0,907.7 605.0,907.7 605.0,867.7 605.0,867.7" fill="#162e4e" stroke="#ffffff" stroke-width="1.5" />
    <polygon data-role="beam" data-id="B3" points="587.7,897.7 587.7,897.7 392.7,560.0 392.7,560.0" fill="#122840" stroke="#ffffff" stroke-width="1.5" />
    <polygon points="622.3,877.7 427.3,540.0 427.3,540.0 622.3,877.7" fill="#0d2035" stroke="#ffffff" stroke-width="1.5" />
    <polygon points="587.7,897.7 622.3,877.7 622.3,877.7 587.7,897.7" fill="#162e4e" stroke="#ffffff" stroke-width="1.5" />
    <polygon points="392.7,560.0 392.7,560.0 427.3,540.0 427.3,540.0" fill="#162e4e" stroke="#ffffff" stroke-width="1.5" />
    <polygon data-role="beam" data-id="B4" points="392.7,540.0 392.7,540.0 587.7,202.3 587.7,202.3" fill="#122840" stroke="#ffffff" stroke-width="1.5" />
    <polygon points="427.3,560.0 622.3,222.3 622.3,222.3 427.3,560.0" fill="#0d2035" stroke="#ffffff" stroke-width="1.5" />
    <polygon points="392.7,540.0 427.3,560.0 427.3,560.0 392.7,540.0" fill="#162e4e" stroke="#ffffff" stroke-width="1.5" />
    <polygon points="587.7,202.3 587.7,202.3 622.3,222.3 622.3,222.3" fill="#162e4e" stroke="#ffffff" stroke-width="1.5" />
    <polygon data-role="beam" data-id="B5" points="605.0,192.3 605.0,192.3 995.0,192.3 995.0,192.3" fill="#122840" stroke="#ffffff" stroke-width="1.5" />
    <polygon points="605.0,232.3 995.0,232.3 995.0,232.3 605.0,232.3" fill="#0d2035" stroke="#ffffff" stroke-width="1.5" />
    <polygon points="605.0,192.3 605.0,232.3 605.0,232.3 605.0,192.3" fill="#162e4e" stroke="#ffffff" stroke-width="1.5" />
    <polygon points="995.0,192.3 995.0,192.3 995.0,232.3 995.0,232.3" fill="#162e4e" stroke="#ffffff" stroke-width="1.5" />
    <polygon data-role="beam" data-id="B6" points="1012.3,202.3 1012.3,202.3 1207.3,540.0 1207.3,540.0" fill="#122840" stroke="#ffffff" stroke-width="1.5" />
    <polygon points="977.7,222.3 1172.7,560.0 1172.7,560.0 977.7,222.3" fill="#0d2035" stroke="#ffffff" stroke-width="1.5" />
    <polygon points="1012.3,202.3 977.7,222.3 977.7,222.3 1012.3,202.3" fill="#162e4e" stroke="#ffffff" stroke-width="1.5" />
    <polygon points="1207.3,540.0 1207.3,540.0 1172.7,560.0 1172.7,560.0" fill="#162e4e" stroke="#ffffff" stroke-width="1.5" />
    <polygon points="1207.3,560.0 1172.7,540.0 977.7,877.7 1012.3,897.7" fill="#1d3e68" stroke="#ffffff" stroke-width="1.5" />
    <polygon points="995.0,907.7 995.0,867.7 605.0,867.7 605.0,907.7" fill="#1d3e68" stroke="#ffffff" stroke-width="1.5" />
    <polygon points="587.7,897.7 622.3,877.7 427.3,540.0 392.7,560.0" fill="#1d3e68" stroke="#ffffff" stroke-width="1.5" />
    <polygon points="392.7,540.0 427.3,560.0 622.3,222.3 587.7,202.3" fill="#1d3e68" stroke="#ffffff" stroke-width="1.5" />
    <polygon points="605.0,192.3 605.0,232.3 995.0,232.3 995.0,192.3" fill="#1d3e68" stroke="#ffffff" stroke-width="1.5" />
    <polygon points="1012.3,202.3 977.7,222.3 1172.7,560.0 1207.3,540.0" fill="#1d3e68" stroke="#ffffff" stroke-width="1.5" />
    <polygon data-role="purlin" data-id="Purlin1" points="1018.6,555.8 1018.6,555.8 914.4,736.4 914.4,736.4" fill="#132440" stroke="#ffffff" stroke-width="1.5" />
    <polygon points="998.4,544.2 894.1,724.7 894.1,724.7 998.4,544.2" fill="#0e1e34" stroke="#ffffff" stroke-width="1.5" />
    <polygon points="1018.6,555.8 998.4,544.2 998.4,544.2 1018.6,555.8" fill="#162c4e" stroke="#ffffff" stroke-width="1.5" />
    <polygon points="914.4,736.4 914.4,736.4 894.1,724.7 894.1,724.7" fill="#162c4e" stroke="#ffffff" stroke-width="1.5" />
    <polygon data-role="purlin" data-id="Purlin2" points="904.2,742.2 904.2,742.2 695.8,742.2 695.8,742.2" fill="#132440" stroke="#ffffff" stroke-width="1.5" />
    <polygon points="904.2,718.9 695.8,718.9 695.8,718.9 904.2,718.9" fill="#0e1e34" stroke="#ffffff" stroke-width="1.5" />
    <polygon points="904.2,742.2 904.2,718.9 904.2,718.9 904.2,742.2" fill="#162c4e" stroke="#ffffff" stroke-width="1.5" />
    <polygon points="695.8,742.2 695.8,742.2 695.8,718.9 695.8,718.9" fill="#162c4e" stroke="#ffffff" stroke-width="1.5" />
    <polygon data-role="purlin" data-id="Purlin3" points="685.6,736.4 685.6,736.4 581.4,555.8 581.4,555.8" fill="#132440" stroke="#ffffff" stroke-width="1.5" />
    <polygon points="705.9,724.7 601.6,544.2 601.6,544.2 705.9,724.7" fill="#0e1e34" stroke="#ffffff" stroke-width="1.5" />
    <polygon points="685.6,736.4 705.9,724.7 705.9,724.7 685.6,736.4" fill="#162c4e" stroke="#ffffff" stroke-width="1.5" />
    <polygon points="581.4,555.8 581.4,555.8 601.6,544.2 601.6,544.2" fill="#162c4e" stroke="#ffffff" stroke-width="1.5" />
    <polygon data-role="purlin" data-id="Purlin4" points="581.4,544.2 581.4,544.2 685.6,363.6 685.6,363.6" fill="#132440" stroke="#ffffff" stroke-width="1.5" />
    <polygon points="601.6,555.8 705.9,375.3 705.9,375.3 601.6,555.8" fill="#0e1e34" stroke="#ffffff" stroke-width="1.5" />
    <polygon points="581.4,544.2 601.6,555.8 601.6,555.8 581.4,544.2" fill="#162c4e" stroke="#ffffff" stroke-width="1.5" />
    <polygon points="685.6,363.6 685.6,363.6 705.9,375.3 705.9,375.3" fill="#162c4e" stroke="#ffffff" stroke-width="1.5" />
    <polygon data-role="purlin" data-id="Purlin5" points="695.7,357.8 695.7,357.8 904.2,357.8 904.2,357.8" fill="#132440" stroke="#ffffff" stroke-width="1.5" />
    <polygon points="695.7,381.1 904.2,381.1 904.2,381.1 695.7,381.1" fill="#0e1e34" stroke="#ffffff" stroke-width="1.5" />
    <polygon points="695.7,357.8 695.7,381.1 695.7,381.1 695.7,357.8" fill="#162c4e" stroke="#ffffff" stroke-width="1.5" />
    <polygon points="904.2,357.8 904.2,357.8 904.2,381.1 904.2,381.1" fill="#162c4e" stroke="#ffffff" stroke-width="1.5" />
    <polygon data-role="purlin" data-id="Purlin6" points="914.4,363.6 914.4,363.6 1018.6,544.2 1018.6,544.2" fill="#132440" stroke="#ffffff" stroke-width="1.5" />
    <polygon points="894.1,375.3 998.4,555.8 998.4,555.8 894.1,375.3" fill="#0e1e34" stroke="#ffffff" stroke-width="1.5" />
    <polygon points="914.4,363.6 894.1,375.3 894.1,375.3 914.4,363.6" fill="#162c4e" stroke="#ffffff" stroke-width="1.5" />
    <polygon points="1018.6,544.2 1018.6,544.2 998.4,555.8 998.4,555.8" fill="#162c4e" stroke="#ffffff" stroke-width="1.5" />
    <polygon points="1018.6,555.8 998.4,544.2 894.1,724.7 914.4,736.4" fill="#1b3760" stroke="#ffffff" stroke-width="1.5" />
    <polygon points="904.2,742.2 904.2,718.9 695.8,718.9 695.8,742.2" fill="#1b3760" stroke="#ffffff" stroke-width="1.5" />
    <polygon points="685.6,736.4 705.9,724.7 601.6,544.2 581.4,555.8" fill="#1b3760" stroke="#ffffff" stroke-width="1.5" />
    <polygon points="581.4,544.2 601.6,555.8 705.9,375.3 685.6,363.6" fill="#1b3760" stroke="#ffffff" stroke-width="1.5" />
    <polygon points="695.7,357.8 695.7,381.1 904.2,381.1 904.2,357.8" fill="#1b3760" stroke="#ffffff" stroke-width="1.5" />
    <polygon points="914.4,363.6 894.1,375.3 998.4,555.8 1018.6,544.2" fill="#1b3760" stroke="#ffffff" stroke-width="1.5" />
    <polygon data-role="rafter" data-id="Jack0b" points="1099.6,811.5 1112.7,819.1 865.7,676.5 852.6,668.9" fill="#132842" stroke="#ffffff" stroke-width="1.5" />
    <polygon points="1111.2,791.3 864.3,648.7 877.4,656.3 1124.4,798.9" fill="#0e2234" stroke="#ffffff" stroke-width="1.5" />
    <polygon data-role="rafter" data-id="Jack1a" points="853.3,940.2 853.3,955.3 853.3,670.2 853.3,655.0" fill="#132842" stroke="#ffffff" stroke-width="1.5" />
    <polygon points="876.7,940.2 876.7,655.0 876.7,670.2 876.7,955.3" fill="#0e2234" stroke="#ffffff" stroke-width="1.5" />
    <polygon data-role="rafter" data-id="Jack2a" points="488.8,791.3 475.6,798.9 722.6,656.3 735.7,648.7" fill="#132842" stroke="#ffffff" stroke-width="1.5" />
    <polygon points="500.4,811.5 747.4,668.9 734.3,676.5 487.3,819.1" fill="#0e2234" stroke="#ffffff" stroke-width="1.5" />
    <polygon data-role="rafter" data-id="Jack2b" points="423.8,678.7 410.6,686.3 657.6,543.7 670.7,536.1" fill="#132842" stroke="#ffffff" stroke-width="1.5" />
    <polygon points="435.4,698.9 682.4,556.3 669.3,563.9 422.3,706.5" fill="#0e2234" stroke="#ffffff" stroke-width="1.5" />
    <polygon data-role="rafter" data-id="Jack4b" points="876.7,159.8 876.7,144.7 876.7,429.8 876.7,445.0" fill="#132842" stroke="#ffffff" stroke-width="1.5" />
    <polygon points="853.3,159.8 853.3,445.0 853.3,429.8 853.3,144.7" fill="#0e2234" stroke="#ffffff" stroke-width="1.5" />
    <polygon data-role="rafter" data-id="Jack5a" points="1111.2,308.7 1124.4,301.1 877.4,443.7 864.3,451.3" fill="#132842" stroke="#ffffff" stroke-width="1.5" />
    <polygon points="1099.6,288.5 852.6,431.1 865.7,423.5 1112.7,280.9" fill="#0e2234" stroke="#ffffff" stroke-width="1.5" />
    <polygon data-role="rafter" data-id="Jack0a" points="1164.6,698.9 1177.7,706.5 930.7,563.9 917.6,556.3" fill="#132842" stroke="#ffffff" stroke-width="1.5" />
    <polygon points="1176.2,678.7 929.3,536.1 942.4,543.7 1189.4,686.3" fill="#0e2234" stroke="#ffffff" stroke-width="1.5" />
    <polygon data-role="rafter" data-id="Jack1b" points="723.3,940.2 723.3,955.3 723.3,670.2 723.3,655.0" fill="#132842" stroke="#ffffff" stroke-width="1.5" />
    <polygon points="746.7,940.2 746.7,655.0 746.7,670.2 746.7,955.3" fill="#0e2234" stroke="#ffffff" stroke-width="1.5" />
    <polygon data-role="rafter" data-id="Jack3a" points="435.4,401.1 422.3,393.5 669.3,536.1 682.4,543.7" fill="#132842" stroke="#ffffff" stroke-width="1.5" />
    <polygon points="423.8,421.3 670.7,563.9 657.6,556.3 410.6,413.7" fill="#0e2234" stroke="#ffffff" stroke-width="1.5" />
    <polygon data-role="rafter" data-id="Jack3b" points="500.4,288.5 487.3,280.9 734.3,423.5 747.4,431.1" fill="#132842" stroke="#ffffff" stroke-width="1.5" />
    <polygon points="488.8,308.7 735.7,451.3 722.6,443.7 475.6,301.1" fill="#0e2234" stroke="#ffffff" stroke-width="1.5" />
    <polygon data-role="rafter" data-id="Jack4a" points="746.7,159.8 746.7,144.7 746.7,429.8 746.7,445.0" fill="#132842" stroke="#ffffff" stroke-width="1.5" />
    <polygon points="723.3,159.8 723.3,445.0 723.3,429.8 723.3,144.7" fill="#0e2234" stroke="#ffffff" stroke-width="1.5" />
    <polygon data-role="rafter" data-id="Jack5b" points="1176.2,421.3 1189.4,413.7 942.4,556.3 929.3,563.9" fill="#132842" stroke="#ffffff" stroke-width="1.5" />
    <polygon points="1164.6,401.1 917.6,543.7 930.7,536.1 1177.7,393.5" fill="#0e2234" stroke="#ffffff" stroke-width="1.5" />
    <polygon data-role="rafter" data-id="R1" points="1243.3,561.7 1256.7,561.7 866.7,561.7 853.3,561.7" fill="#132842" stroke="#ffffff" stroke-width="1.5" />
    <polygon points="1243.3,538.3 853.3,538.3 866.7,538.3 1256.7,538.3" fill="#0e2234" stroke="#ffffff" stroke-width="1.5" />
    <polygon data-role="rafter" data-id="R2" points="1011.5,939.7 1018.3,951.4 823.3,613.6 816.5,602.0" fill="#132842" stroke="#ffffff" stroke-width="1.5" />
    <polygon points="1031.7,928.1 836.7,590.3 843.5,601.9 1038.5,939.7" fill="#0e2234" stroke="#ffffff" stroke-width="1.5" />
    <polygon data-role="rafter" data-id="R3" points="568.3,928.1 561.5,939.7 756.5,601.9 763.3,590.3" fill="#132842" stroke="#ffffff" stroke-width="1.5" />
    <polygon points="588.5,939.7 783.5,602.0 776.7,613.6 581.7,951.4" fill="#0e2234" stroke="#ffffff" stroke-width="1.5" />
    <polygon data-role="rafter" data-id="R4" points="356.7,538.3 343.3,538.3 733.3,538.3 746.7,538.3" fill="#132842" stroke="#ffffff" stroke-width="1.5" />
    <polygon points="356.7,561.7 746.7,561.7 733.3,561.7 343.3,561.7" fill="#0e2234" stroke="#ffffff" stroke-width="1.5" />
    <polygon data-role="rafter" data-id="R5" points="588.5,160.3 581.7,148.6 776.7,486.4 783.5,498.0" fill="#132842" stroke="#ffffff" stroke-width="1.5" />
    <polygon points="568.3,171.9 763.3,509.7 756.5,498.1 561.5,160.3" fill="#0e2234" stroke="#ffffff" stroke-width="1.5" />
    <polygon data-role="rafter" data-id="R6" points="1031.7,171.9 1038.5,160.3 843.5,498.1 836.7,509.7" fill="#132842" stroke="#ffffff" stroke-width="1.5" />
    <polygon points="1011.5,160.3 816.5,498.0 823.3,486.4 1018.3,148.6" fill="#0e2234" stroke="#ffffff" stroke-width="1.5" />
    <polygon points="1177.7,706.5 1189.4,686.3 942.4,543.7 930.7,563.9" fill="#1f4070" stroke="#ffffff" stroke-width="1.5" />
    <polygon points="1112.7,819.1 1124.4,798.9 877.4,656.3 865.7,676.5" fill="#1f4070" stroke="#ffffff" stroke-width="1.5" />
    <polygon points="853.3,955.3 876.7,955.3 876.7,670.2 853.3,670.2" fill="#1f4070" stroke="#ffffff" stroke-width="1.5" />
    <polygon points="723.3,955.3 746.7,955.3 746.7,670.2 723.3,670.2" fill="#1f4070" stroke="#ffffff" stroke-width="1.5" />
    <polygon points="475.6,798.9 487.3,819.1 734.3,676.5 722.6,656.3" fill="#1f4070" stroke="#ffffff" stroke-width="1.5" />
    <polygon points="410.6,686.3 422.3,706.5 669.3,563.9 657.6,543.7" fill="#1f4070" stroke="#ffffff" stroke-width="1.5" />
    <polygon points="422.3,393.5 410.6,413.7 657.6,556.3 669.3,536.1" fill="#1f4070" stroke="#ffffff" stroke-width="1.5" />
    <polygon points="487.3,280.9 475.6,301.1 722.6,443.7 734.3,423.5" fill="#1f4070" stroke="#ffffff" stroke-width="1.5" />
    <polygon points="746.7,144.7 723.3,144.7 723.3,429.8 746.7,429.8" fill="#1f4070" stroke="#ffffff" stroke-width="1.5" />
    <polygon points="876.7,144.7 853.3,144.7 853.3,429.8 876.7,429.8" fill="#1f4070" stroke="#ffffff" stroke-width="1.5" />
    <polygon points="1124.4,301.1 1112.7,280.9 865.7,423.5 877.4,443.7" fill="#1f4070" stroke="#ffffff" stroke-width="1.5" />
    <polygon points="1189.4,413.7 1177.7,393.5 930.7,536.1 942.4,556.3" fill="#1f4070" stroke="#ffffff" stroke-width="1.5" />
    <polygon points="1256.7,561.7 1256.7,538.3 866.7,538.3 866.7,561.7" fill="#1f4070" stroke="#ffffff" stroke-width="1.5" />
    <polygon points="1018.3,951.4 1038.5,939.7 843.5,601.9 823.3,613.6" fill="#1f4070" stroke="#ffffff" stroke-width="1.5" />
    <polygon points="561.5,939.7 581.7,951.4 776.7,613.6 756.5,601.9" fill="#1f4070" stroke="#ffffff" stroke-width="1.5" />
    <polygon points="343.3,538.3 343.3,561.7 733.3,561.7 733.3,538.3" fill="#1f4070" stroke="#ffffff" stroke-width="1.5" />
    <polygon points="581.7,148.6 561.5,160.3 756.5,498.1 776.7,486.4" fill="#1f4070" stroke="#ffffff" stroke-width="1.5" />
    <polygon points="1038.5,160.3 1018.3,148.6 823.3,486.4 843.5,498.1" fill="#1f4070" stroke="#ffffff" stroke-width="1.5" />
    <polygon points="852.6,668.9 865.7,676.5 877.4,656.3 864.3,648.7" fill="#172d4c" stroke="#ffffff" stroke-width="1.5" />
    <polygon points="853.3,655.0 853.3,670.2 876.7,670.2 876.7,655.0" fill="#172d4c" stroke="#ffffff" stroke-width="1.5" />
    <polygon points="735.7,648.7 722.6,656.3 734.3,676.5 747.4,668.9" fill="#172d4c" stroke="#ffffff" stroke-width="1.5" />
    <polygon points="670.7,536.1 657.6,543.7 669.3,563.9 682.4,556.3" fill="#172d4c" stroke="#ffffff" stroke-width="1.5" />
    <polygon points="876.7,445.0 876.7,429.8 853.3,429.8 853.3,445.0" fill="#172d4c" stroke="#ffffff" stroke-width="1.5" />
    <polygon points="864.3,451.3 877.4,443.7 865.7,423.5 852.6,431.1" fill="#172d4c" stroke="#ffffff" stroke-width="1.5" />
    <polygon points="917.6,556.3 930.7,563.9 942.4,543.7 929.3,536.1" fill="#172d4c" stroke="#ffffff" stroke-width="1.5" />
    <polygon points="723.3,655.0 723.3,670.2 746.7,670.2 746.7,655.0" fill="#172d4c" stroke="#ffffff" stroke-width="1.5" />
    <polygon points="682.4,543.7 669.3,536.1 657.6,556.3 670.7,563.9" fill="#172d4c" stroke="#ffffff" stroke-width="1.5" />
    <polygon points="747.4,431.1 734.3,423.5 722.6,443.7 735.7,451.3" fill="#172d4c" stroke="#ffffff" stroke-width="1.5" />
    <polygon points="746.7,445.0 746.7,429.8 723.3,429.8 723.3,445.0" fill="#172d4c" stroke="#ffffff" stroke-width="1.5" />
    <polygon points="929.3,563.9 942.4,556.3 930.7,536.1 917.6,543.7" fill="#172d4c" stroke="#ffffff" stroke-width="1.5" />
    <polygon points="853.3,561.7 866.7,561.7 866.7,538.3 853.3,538.3" fill="#172d4c" stroke="#ffffff" stroke-width="1.5" />
    <polygon points="816.5,602.0 823.3,613.6 843.5,601.9 836.7,590.3" fill="#172d4c" stroke="#ffffff" stroke-width="1.5" />
    <polygon points="763.3,590.3 756.5,601.9 776.7,613.6 783.5,602.0" fill="#172d4c" stroke="#ffffff" stroke-width="1.5" />
    <polygon points="746.7,538.3 733.3,538.3 733.3,561.7 746.7,561.7" fill="#172d4c" stroke="#ffffff" stroke-width="1.5" />
    <polygon points="783.5,498.0 776.7,486.4 756.5,498.1 763.3,509.7" fill="#172d4c" stroke="#ffffff" stroke-width="1.5" />
    <polygon points="836.7,509.7 843.5,498.1 823.3,486.4 816.5,498.0" fill="#172d4c" stroke="#ffffff" stroke-width="1.5" />
    <polygon data-role="hub" data-id="HUB" points="860.0,550.0 830.0,602.0 830.0,602.0 860.0,550.0" fill="#1a3868" stroke="#ffffff" stroke-width="1.5" />
    <polygon points="830.0,602.0 770.0,602.0 770.0,602.0 830.0,602.0" fill="#1a3868" stroke="#ffffff" stroke-width="1.5" />
    <polygon points="770.0,602.0 740.0,550.0 740.0,550.0 770.0,602.0" fill="#152d56" stroke="#ffffff" stroke-width="1.5" />
    <polygon points="740.0,550.0 770.0,498.0 770.0,498.0 740.0,550.0" fill="#152d56" stroke="#ffffff" stroke-width="1.5" />
    <polygon points="770.0,498.0 830.0,498.0 830.0,498.0 770.0,498.0" fill="#152d56" stroke="#ffffff" stroke-width="1.5" />
    <polygon points="830.0,498.0 860.0,550.0 860.0,550.0 830.0,498.0" fill="#1a3868" stroke="#ffffff" stroke-width="1.5" />
    <polygon points="860.0,550.0 830.0,602.0 770.0,602.0 740.0,550.0 770.0,498.0 830.0,498.0" fill="#204878" stroke="#ffffff" stroke-width="1.5" />
    <g data-role="dimension">
        <line x1="349.68000000000006" y1="1050.32" x2="1250.32" y2="1050.32" stroke="#00e5ff" stroke-width="1.2" />
        <line x1="341.68000000000006" y1="1058.32" x2="357.68000000000006" y2="1042.32" stroke="#00e5ff" stroke-width="2" />
        <line x1="1242.32" y1="1058.32" x2="1258.32" y2="1042.32" stroke="#00e5ff" stroke-width="2" />
        <text x="800.0" y="1042.32" text-anchor="middle" font-family="Courier New, monospace" font-size="13" font-weight="bold" fill="#00e5ff">MAX DIAGONAL SPAN: 11.258 FT</text>
    </g>
    <g data-role="dimension">
        <line x1="1290.32" y1="550.0" x2="1065.16" y2="939.9885598322084" stroke="#00e5ff" stroke-width="1.2" />
        <line x1="1282.32" y1="558.0" x2="1298.32" y2="542.0" stroke="#00e5ff" stroke-width="2" />
        <line x1="1057.16" y1="947.9885598322084" x2="1073.16" y2="931.9885598322084" stroke="#00e5ff" stroke-width="2" />
        <text x="1162.74" y="744.9942799161042" text-anchor="middle" transform="rotate(-90,1162.74,744.9942799161042)" font-family="Courier New, monospace" font-size="13" font-weight="bold" fill="#00e5ff">POST ON-CENTRE: 5.63 FT</text>
    </g>
    <g data-role="dimension">
        <line x1="800.0" y1="520.0" x2="620.0" y2="370.0" stroke="#00e5ff" stroke-width="1" stroke-dasharray="2,2" />
        <circle cx="800.0" cy="520.0" r="3" fill="#00e5ff" />
        <text x="615.0" y="374.0" text-anchor="end" font-family="Courier New, monospace" font-size="11" font-weight="bold" fill="#00e5ff">6x6 CEDAR HUB</text>
    </g>
    <g data-role="dimension">
        <line x1="1250.32" y1="530.0" x2="1370.32" y2="450.0" stroke="#00e5ff" stroke-width="1" stroke-dasharray="2,2" />
        <circle cx="1250.32" cy="530.0" r="3" fill="#00e5ff" />
        <text x="1375.32" y="454.0" text-anchor="start" font-family="Courier New, monospace" font-size="11" font-weight="bold" fill="#00e5ff">6x6 TIMBER POST (M01)</text>
    </g>
    <g transform="translate(100, 100)" font-family="monospace" fill="#00ffff">
        <rect x="-10" y="-20" width="320" height="90" fill="none" stroke="#ffffff" stroke-width="1" stroke-dasharray="3,3" />
        <text x="0" y="0" font-size="14" font-weight="bold">FABRICATION DATA (PLAN):</text>
        <text x="0" y="25" font-size="12">BEAM RING FLAT MITER: 30.00°</text>
        <text x="0" y="45" font-size="12">LAYOUT TYPE: EQUILATERAL HEXAGON</text>
    </g>
    <g data-role="title-block" transform="translate(1180, 1030)">
        <rect width="400" height="150" fill="#12253a" stroke="#00ffff" stroke-width="1.8" />
        <line x1="0" y1="40" x2="400" y2="40" stroke="#00ffff" stroke-width="1" />
        <text x="15" y="28" font-family="Courier New, Courier, monospace" font-size="18" font-weight="bold" fill="#00ffff">BLUEPRINT PLAN</text>
        <text x="15" y="60" font-family="Courier New, Courier, monospace" font-size="11" fill="#00ffff">STRUCTURE: PERGOLA</text>
        <text x="15" y="80" font-family="Courier New, Courier, monospace" font-size="11" fill="#00ffff">JURISDICTION: BC_SAANICH</text>
        <text x="15" y="100" font-family="Courier New, Courier, monospace" font-size="11" fill="#00ffff">SOURCE HASH: 6a3a3109</text>
        <text x="15" y="120" font-family="Courier New, Courier, monospace" font-size="11" fill="#00ffff">DATE: 2026-05-23 | SCALE: 1/2" = 1'-0"</text>
    </g>
    <!-- VALIDATOR_ANCHORS: 4:12 28.71° 9.1° -->
    <!-- SAW_SETTINGS: {"miter_deg": 28.71, "bevel_deg": 9.1} -->
    <!-- COORDINATE MAP: {"viewBox": "0 0 1600 1200", "width_px": 1600, "height_px": 1200, "margin_top_px": 80, "margin_bottom_px": 120, "grade_y": 1080, "scale_px_per_ft": 42.0, "content_height_px": 464, "content_width_px": 610, "post_top_y": 726, "beam_soffit_y": 726, "beam_top_y": 684, "hub_apex_y": 616, "rise_px": 68, "beam_px": 42, "post_px": 354} -->
    <g style="visibility:hidden; display:none;">
        <text>4:12</text>
        <text>28.71</text>
        <text>9.1</text>
    </g>
</svg>