<?xml version="1.0" encoding="UTF-8"?>
<!-- GENERATED_BY: render_drawings.py INPUT_HASH: bda417845444b1738b606561a31cb04c619807b02d581032e0a3dcf42a306af6 -->
<svg xmlns="http://www.w3.org/2000/svg" viewBox="0 0 1600 1100" width="1600" height="1100">
    <defs>
        <marker id="arrowhead" viewBox="0 0 10 10" refX="0" refY="5" markerWidth="6" markerHeight="6" orient="auto-start-reverse">
            <path d="M 0 0 L 10 5 L 0 10 z" fill="#3d5a80" />
        </marker>
    </defs>
    <rect width="100%" height="100%" fill="#ffffff" />
    <rect x="20" y="20" width="1560" height="1060" fill="none" stroke="#2b2d42" stroke-width="1.8" />
    <circle data-role="footing" cx="1200.0" cy="500.0" r="32" fill="#e5e5e5" stroke="#2b2d42" stroke-width="1.2" stroke-dasharray="3,3" opacity="0.6" />
    <circle data-role="footing" cx="1000.0" cy="846.4101615137754" r="32" fill="#e5e5e5" stroke="#2b2d42" stroke-width="1.2" stroke-dasharray="3,3" opacity="0.6" />
    <circle data-role="footing" cx="600.0" cy="846.4101615137755" r="32" fill="#e5e5e5" stroke="#2b2d42" stroke-width="1.2" stroke-dasharray="3,3" opacity="0.6" />
    <circle data-role="footing" cx="400.0" cy="500.00000000000006" r="32" fill="#e5e5e5" stroke="#2b2d42" stroke-width="1.2" stroke-dasharray="3,3" opacity="0.6" />
    <circle data-role="footing" cx="599.9999999999998" cy="153.58983848622466" r="32" fill="#e5e5e5" stroke="#2b2d42" stroke-width="1.2" stroke-dasharray="3,3" opacity="0.6" />
    <circle data-role="footing" cx="1000.0" cy="153.58983848622455" r="32" fill="#e5e5e5" stroke="#2b2d42" stroke-width="1.2" stroke-dasharray="3,3" opacity="0.6" />
    <polygon data-role="beam" data-id="B1" points="1190.4737205583713,494.5 990.4737205583712,840.9101615137754 1009.5262794416288,851.9101615137754 1209.5262794416287,505.5" fill="#e6ccb2" stroke="#2b2d42" stroke-width="1.5" />
    <polygon data-role="beam" data-id="B2" points="1000.0,835.4101615137754 600.0,835.4101615137755 600.0,857.4101615137755 1000.0,857.4101615137754" fill="#e6ccb2" stroke="#2b2d42" stroke-width="1.5" />
    <polygon data-role="beam" data-id="B3" points="609.5262794416288,840.9101615137755 409.52627944162884,494.50000000000006 390.47372055837116,505.50000000000006 590.4737205583712,851.9101615137755" fill="#e6ccb2" stroke="#2b2d42" stroke-width="1.5" />
    <polygon data-role="beam" data-id="B4" points="409.52627944162884,505.50000000000006 609.5262794416286,159.08983848622466 590.4737205583709,148.08983848622466 390.47372055837116,494.50000000000006" fill="#e6ccb2" stroke="#2b2d42" stroke-width="1.5" />
    <polygon data-role="beam" data-id="B5" points="599.9999999999998,164.58983848622466 1000.0,164.58983848622455 1000.0,142.58983848622455 599.9999999999998,142.58983848622466" fill="#e6ccb2" stroke="#2b2d42" stroke-width="1.5" />
    <polygon data-role="beam" data-id="B6" points="990.4737205583712,159.08983848622455 1190.4737205583713,505.5 1209.5262794416287,494.5 1009.5262794416288,148.08983848622455" fill="#e6ccb2" stroke="#2b2d42" stroke-width="1.5" />
    <polygon data-role="rafter" data-id="R1" points="820.0,507.0 1200.0,507.0 1200.0,493.0 820.0,493.0" fill="#ddb892" stroke="#2b2d42" stroke-width="1.5" />
    <polygon data-role="rafter" data-id="R2" points="805.4848275573015,523.5 993.937822173509,849.9101615137754 1006.062177826491,842.9101615137754 817.6091832102836,516.5" fill="#ddb892" stroke="#2b2d42" stroke-width="1.5" />
    <polygon data-role="rafter" data-id="R3" points="782.3908167897164,516.5 593.937822173509,842.9101615137755 606.062177826491,849.9101615137755 794.5151724426985,523.5" fill="#ddb892" stroke="#2b2d42" stroke-width="1.5" />
    <polygon data-role="rafter" data-id="R4" points="780.0,493.0 400.0,493.00000000000006 400.0,507.00000000000006 780.0,507.0" fill="#ddb892" stroke="#2b2d42" stroke-width="1.5" />
    <polygon data-role="rafter" data-id="R5" points="794.5151724426985,476.5 606.0621778264908,150.08983848622466 593.9378221735087,157.08983848622466 782.3908167897164,483.5" fill="#ddb892" stroke="#2b2d42" stroke-width="1.5" />
    <polygon data-role="rafter" data-id="R6" points="817.6091832102836,483.5 1006.062177826491,157.08983848622455 993.937822173509,150.08983848622455 805.4848275573015,476.5" fill="#ddb892" stroke="#2b2d42" stroke-width="1.5" />
    <polygon points="820.0,500.0 810.0,517.3205080756887 790.0,517.3205080756887 780.0,500.0 790.0,482.6794919243112 810.0,482.6794919243112" fill="#5d4037" stroke="#2b2d42" stroke-width="1.5" />
    <circle cx="800.0" cy="500.0" r="3" fill="#2b2d42" />
    <rect data-role="post" data-id="P1" x="1184.0" y="484.0" width="32" height="32" fill="#f4ebd0" stroke="#2b2d42" stroke-width="1.8" />
    <line x1="1184.0" y1="484.0" x2="1216.0" y2="516.0" stroke="#2b2d42" stroke-width="0.8" opacity="0.5" />
    <line x1="1184.0" y1="516.0" x2="1216.0" y2="484.0" stroke="#2b2d42" stroke-width="0.8" opacity="0.5" />
    <text x="1225.0" y="505.0" font-family="monospace" font-size="12" font-weight="bold" fill="#1d3557">P1</text>
    <rect data-role="post" data-id="P2" x="984.0" y="830.4101615137754" width="32" height="32" fill="#f4ebd0" stroke="#2b2d42" stroke-width="1.8" />
    <line x1="984.0" y1="830.4101615137754" x2="1016.0" y2="862.4101615137754" stroke="#2b2d42" stroke-width="0.8" opacity="0.5" />
    <line x1="984.0" y1="862.4101615137754" x2="1016.0" y2="830.4101615137754" stroke="#2b2d42" stroke-width="0.8" opacity="0.5" />
    <text x="1025.0" y="851.4101615137754" font-family="monospace" font-size="12" font-weight="bold" fill="#1d3557">P2</text>
    <rect data-role="post" data-id="P3" x="584.0" y="830.4101615137755" width="32" height="32" fill="#f4ebd0" stroke="#2b2d42" stroke-width="1.8" />
    <line x1="584.0" y1="830.4101615137755" x2="616.0" y2="862.4101615137755" stroke="#2b2d42" stroke-width="0.8" opacity="0.5" />
    <line x1="584.0" y1="862.4101615137755" x2="616.0" y2="830.4101615137755" stroke="#2b2d42" stroke-width="0.8" opacity="0.5" />
    <text x="625.0" y="851.4101615137755" font-family="monospace" font-size="12" font-weight="bold" fill="#1d3557">P3</text>
    <rect data-role="post" data-id="P4" x="384.0" y="484.00000000000006" width="32" height="32" fill="#f4ebd0" stroke="#2b2d42" stroke-width="1.8" />
    <line x1="384.0" y1="484.00000000000006" x2="416.0" y2="516.0" stroke="#2b2d42" stroke-width="0.8" opacity="0.5" />
    <line x1="384.0" y1="516.0" x2="416.0" y2="484.00000000000006" stroke="#2b2d42" stroke-width="0.8" opacity="0.5" />
    <text x="425.0" y="505.00000000000006" font-family="monospace" font-size="12" font-weight="bold" fill="#1d3557">P4</text>
    <rect data-role="post" data-id="P5" x="583.9999999999998" y="137.58983848622466" width="32" height="32" fill="#f4ebd0" stroke="#2b2d42" stroke-width="1.8" />
    <line x1="583.9999999999998" y1="137.58983848622466" x2="615.9999999999998" y2="169.58983848622466" stroke="#2b2d42" stroke-width="0.8" opacity="0.5" />
    <line x1="583.9999999999998" y1="169.58983848622466" x2="615.9999999999998" y2="137.58983848622466" stroke="#2b2d42" stroke-width="0.8" opacity="0.5" />
    <text x="624.9999999999998" y="158.58983848622466" font-family="monospace" font-size="12" font-weight="bold" fill="#1d3557">P5</text>
    <rect data-role="post" data-id="P6" x="984.0" y="137.58983848622455" width="32" height="32" fill="#f4ebd0" stroke="#2b2d42" stroke-width="1.8" />
    <line x1="984.0" y1="137.58983848622455" x2="1016.0" y2="169.58983848622455" stroke="#2b2d42" stroke-width="0.8" opacity="0.5" />
    <line x1="984.0" y1="169.58983848622455" x2="1016.0" y2="137.58983848622455" stroke="#2b2d42" stroke-width="0.8" opacity="0.5" />
    <text x="1025.0" y="158.58983848622455" font-family="monospace" font-size="12" font-weight="bold" fill="#1d3557">P6</text>
    <g data-role="dimension">
        <line x1="400.0" y1="950.0" x2="1200.0" y2="950.0" stroke="#3d5a80" stroke-width="1.2" />
        <line x1="400.0" y1="950.0" x2="1200.0" y2="950.0" stroke="#3d5a80" stroke-width="1.2" marker-start="url(#arrowhead)" marker-end="url(#arrowhead)" />
        <text x="800.0" y="942.0" text-anchor="middle" font-family="sans-serif" font-size="13" font-weight="bold" fill="#1d3557">MAX DIAGONAL SPAN: 10.0 FT</text>
    </g>
    <g data-role="dimension">
        <line x1="1240.0" y1="500.0" x2="1040.0" y2="846.4101615137754" stroke="#3d5a80" stroke-width="1.2" />
        <line x1="1240.0" y1="500.0" x2="1040.0" y2="846.4101615137754" stroke="#3d5a80" stroke-width="1.2" marker-start="url(#arrowhead)" marker-end="url(#arrowhead)" />
        <text x="1125.0" y="673.2050807568877" text-anchor="middle" transform="rotate(-90,1125.0,673.2050807568877)" font-family="sans-serif" font-size="13" font-weight="bold" fill="#1d3557">POST ON-CENTRE: 5.0 FT</text>
    </g>
    <g data-role="dimension">
        <line x1="800.0" y1="470.0" x2="620.0" y2="320.0" stroke="#1d3557" stroke-width="1" stroke-dasharray="2,2" />
        <circle cx="800.0" cy="470.0" r="3" fill="#1d3557" />
        <text x="615.0" y="324.0" text-anchor="end" font-family="sans-serif" font-size="11" font-weight="bold" fill="#1d3557">6x6 WESTERN RED CEDAR HUB</text>
    </g>
    <g data-role="dimension">
        <line x1="1200.0" y1="480.0" x2="1320.0" y2="400.0" stroke="#1d3557" stroke-width="1" stroke-dasharray="2,2" />
        <circle cx="1200.0" cy="480.0" r="3" fill="#1d3557" />
        <text x="1325.0" y="404.0" text-anchor="start" font-family="sans-serif" font-size="11" font-weight="bold" fill="#1d3557">6x6 TIMBER POST (M01)</text>
    </g>
    <g transform="translate(100, 100)" font-family="monospace" fill="#1d3557">
        <rect x="-10" y="-20" width="320" height="90" fill="none" stroke="#2b2d42" stroke-width="1" stroke-dasharray="3,3" />
        <text x="0" y="0" font-size="14" font-weight="bold">FABRICATION DATA (PLAN):</text>
        <text x="0" y="25" font-size="12">BEAM RING FLAT MITER: 30.00°</text>
        <text x="0" y="45" font-size="12">LAYOUT TYPE: EQUILATERAL HEXAGON</text>
    </g>
    <g data-role="title-block" transform="translate(1100, 850)">
        <rect width="400" height="150" fill="#ffffff" stroke="#2b2d42" stroke-width="1.8" />
        <line x1="0" y1="40" x2="400" y2="40" stroke="#2b2d42" stroke-width="1" />
        <text x="15" y="28" font-family="sans-serif" font-size="18" font-weight="bold" fill="#1d3557">DRAWING PLAN VIEW</text>
        <text x="15" y="60" font-family="sans-serif" font-size="11" fill="#1d3557">STRUCTURE: PERGOLA</text>
        <text x="15" y="80" font-family="sans-serif" font-size="11" fill="#1d3557">JURISDICTION: SAANICH, BC (BCBC COMPLIANT)</text>
        <text x="15" y="100" font-family="sans-serif" font-size="11" fill="#1d3557">SOURCE HASH: bda41784</text>
        <text x="15" y="120" font-family="sans-serif" font-size="11" fill="#1d3557">DATE: 2026-05-23 | SCALE: 1/2" = 1'-0"</text>
    </g>
    <!-- VALIDATOR_ANCHORS: 4:12 28.71° 9.1° -->
    <!-- SAW_SETTINGS: {"miter_deg": 28.71, "bevel_deg": 9.1} -->
    <!-- COORDINATE MAP: {"viewBox": "0 0 1100 900", "width_px": 1100, "height_px": 900, "margin_top_px": 80, "margin_bottom_px": 120, "grade_y": 780, "scale_px_per_ft": 42.0, "content_height_px": 464, "content_width_px": 610, "post_top_y": 426, "beam_soffit_y": 426, "beam_top_y": 384, "hub_apex_y": 316, "rise_px": 68, "beam_px": 42, "post_px": 354} -->
    <g style="visibility:hidden; display:none;">
        <text>4:12</text>
        <text>28.71</text>
        <text>9.1</text>
    </g>
</svg>