<?xml version="1.0" encoding="UTF-8"?>
<!-- GENERATED_BY: render_drawings.py INPUT_HASH: bda417845444b1738b606561a31cb04c619807b02d581032e0a3dcf42a306af6 -->
<svg xmlns="http://www.w3.org/2000/svg" viewBox="0 0 1600 1100" width="1600" height="1100">
    <defs>
        <marker id="arrowhead" viewBox="0 0 10 10" refX="0" refY="5" markerWidth="6" markerHeight="6" orient="auto-start-reverse">
            <path d="M 0 0 L 10 5 L 0 10 z" fill="#3d5a80" />
        </marker>
    </defs>
    <rect width="100%" height="100%" fill="#ffffff" />
    <rect x="20" y="20" width="1560" height="1060" fill="none" stroke="#2b2d42" stroke-width="1.8" />
    <line x1="100" y1="1000" x2="1500" y2="1000" stroke="#2b2d42" stroke-width="3" />
        <line x1="100" y1="1000" x2="90" y2="1010" stroke="#2b2d42" stroke-width="1" />
        <line x1="180" y1="1000" x2="170" y2="1010" stroke="#2b2d42" stroke-width="1" />
        <line x1="260" y1="1000" x2="250" y2="1010" stroke="#2b2d42" stroke-width="1" />
        <line x1="340" y1="1000" x2="330" y2="1010" stroke="#2b2d42" stroke-width="1" />
        <line x1="420" y1="1000" x2="410" y2="1010" stroke="#2b2d42" stroke-width="1" />
        <line x1="500" y1="1000" x2="490" y2="1010" stroke="#2b2d42" stroke-width="1" />
        <line x1="580" y1="1000" x2="570" y2="1010" stroke="#2b2d42" stroke-width="1" />
        <line x1="660" y1="1000" x2="650" y2="1010" stroke="#2b2d42" stroke-width="1" />
        <line x1="740" y1="1000" x2="730" y2="1010" stroke="#2b2d42" stroke-width="1" />
        <line x1="820" y1="1000" x2="810" y2="1010" stroke="#2b2d42" stroke-width="1" />
        <line x1="900" y1="1000" x2="890" y2="1010" stroke="#2b2d42" stroke-width="1" />
        <line x1="980" y1="1000" x2="970" y2="1010" stroke="#2b2d42" stroke-width="1" />
        <line x1="1060" y1="1000" x2="1050" y2="1010" stroke="#2b2d42" stroke-width="1" />
        <line x1="1140" y1="1000" x2="1130" y2="1010" stroke="#2b2d42" stroke-width="1" />
        <line x1="1220" y1="1000" x2="1210" y2="1010" stroke="#2b2d42" stroke-width="1" />
        <line x1="1300" y1="1000" x2="1290" y2="1010" stroke="#2b2d42" stroke-width="1" />
        <line x1="1380" y1="1000" x2="1370" y2="1010" stroke="#2b2d42" stroke-width="1" />
        <line x1="1460" y1="1000" x2="1450" y2="1010" stroke="#2b2d42" stroke-width="1" />
    <rect data-role="footing" x="1137.5" y="1000" width="75" height="150" fill="#e5e5e5" stroke="#2b2d42" stroke-width="1.5" stroke-dasharray="4,4" opacity="1.0" />
    <rect x="1155.0" y="985" width="40" height="15" fill="none" stroke="#2b2d42" stroke-width="1.5" opacity="1.0" />
    <rect data-role="footing" x="950.0" y="1000" width="75" height="150" fill="#e5e5e5" stroke="#2b2d42" stroke-width="1.5" stroke-dasharray="4,4" opacity="1.0" />
    <rect x="967.5" y="985" width="40" height="15" fill="none" stroke="#2b2d42" stroke-width="1.5" opacity="1.0" />
    <rect data-role="footing" x="575.0" y="1000" width="75" height="150" fill="#e5e5e5" stroke="#2b2d42" stroke-width="1.5" stroke-dasharray="4,4" opacity="1.0" />
    <rect x="592.5" y="985" width="40" height="15" fill="none" stroke="#2b2d42" stroke-width="1.5" opacity="1.0" />
    <rect data-role="footing" x="387.5" y="1000" width="75" height="150" fill="#e5e5e5" stroke="#2b2d42" stroke-width="1.5" stroke-dasharray="4,4" opacity="1.0" />
    <rect x="405.0" y="985" width="40" height="15" fill="none" stroke="#2b2d42" stroke-width="1.5" opacity="1.0" />
    <rect data-role="footing" x="574.9999999999998" y="1000" width="75" height="150" fill="#e5e5e5" stroke="#2b2d42" stroke-width="1.5" stroke-dasharray="4,4" opacity="0.4" />
    <rect x="592.4999999999998" y="985" width="40" height="15" fill="none" stroke="#2b2d42" stroke-width="1.5" opacity="0.4" />
    <rect data-role="footing" x="950.0" y="1000" width="75" height="150" fill="#e5e5e5" stroke="#2b2d42" stroke-width="1.5" stroke-dasharray="4,4" opacity="0.4" />
    <rect x="967.5" y="985" width="40" height="15" fill="none" stroke="#2b2d42" stroke-width="1.5" opacity="0.4" />
    <rect data-role="post" data-id="P1" x="1158.0" y="368.5" width="34" height="631.5" fill="#f4ebd0" stroke="#2b2d42" stroke-width="1.8" opacity="1.0" />
    <line x1="1175.0" y1="348.5" x2="1175.0" y2="1170" stroke="#e05a47" stroke-width="0.8" stroke-dasharray="12,4,2,4" opacity="1.0" />
    <text x="1175.0" y="353.5" text-anchor="middle" font-family="monospace" font-size="12" font-weight="bold" fill="#1d3557">P1</text>
    <rect data-role="post" data-id="P2" x="970.5" y="368.5" width="34" height="631.5" fill="#f4ebd0" stroke="#2b2d42" stroke-width="1.8" opacity="1.0" />
    <line x1="987.5" y1="348.5" x2="987.5" y2="1170" stroke="#e05a47" stroke-width="0.8" stroke-dasharray="12,4,2,4" opacity="1.0" />
    <text x="987.5" y="353.5" text-anchor="middle" font-family="monospace" font-size="12" font-weight="bold" fill="#1d3557">P2</text>
    <rect data-role="post" data-id="P3" x="595.5" y="368.5" width="34" height="631.5" fill="#f4ebd0" stroke="#2b2d42" stroke-width="1.8" opacity="1.0" />
    <line x1="612.5" y1="348.5" x2="612.5" y2="1170" stroke="#e05a47" stroke-width="0.8" stroke-dasharray="12,4,2,4" opacity="1.0" />
    <text x="612.5" y="353.5" text-anchor="middle" font-family="monospace" font-size="12" font-weight="bold" fill="#1d3557">P3</text>
    <rect data-role="post" data-id="P4" x="408.0" y="368.5" width="34" height="631.5" fill="#f4ebd0" stroke="#2b2d42" stroke-width="1.8" opacity="1.0" />
    <line x1="425.0" y1="348.5" x2="425.0" y2="1170" stroke="#e05a47" stroke-width="0.8" stroke-dasharray="12,4,2,4" opacity="1.0" />
    <text x="425.0" y="353.5" text-anchor="middle" font-family="monospace" font-size="12" font-weight="bold" fill="#1d3557">P4</text>
    <rect data-role="post" data-id="P5" x="595.4999999999998" y="368.5" width="34" height="631.5" fill="#f4ebd0" stroke="#2b2d42" stroke-width="1.8" opacity="0.4" />
    <line x1="612.4999999999998" y1="348.5" x2="612.4999999999998" y2="1170" stroke="#e05a47" stroke-width="0.8" stroke-dasharray="12,4,2,4" opacity="0.4" />
    <rect data-role="post" data-id="P6" x="970.5" y="368.5" width="34" height="631.5" fill="#f4ebd0" stroke="#2b2d42" stroke-width="1.8" opacity="0.4" />
    <line x1="987.5" y1="348.5" x2="987.5" y2="1170" stroke="#e05a47" stroke-width="0.8" stroke-dasharray="12,4,2,4" opacity="0.4" />
    <line data-role="brace" x1="1175.0" y1="488.5" x2="1055.0" y2="368.5" stroke="#ede0d4" stroke-width="16" stroke-linecap="square" opacity="1.0" />
    <line x1="1175.0" y1="488.5" x2="1055.0" y2="368.5" stroke="#2b2d42" stroke-width="1.5" opacity="1.0" />
    <line data-role="brace" x1="987.5" y1="488.5" x2="867.5" y2="368.5" stroke="#ede0d4" stroke-width="16" stroke-linecap="square" opacity="1.0" />
    <line x1="987.5" y1="488.5" x2="867.5" y2="368.5" stroke="#2b2d42" stroke-width="1.5" opacity="1.0" />
    <line data-role="brace" x1="612.5" y1="488.5" x2="732.5" y2="368.5" stroke="#ede0d4" stroke-width="16" stroke-linecap="square" opacity="1.0" />
    <line x1="612.5" y1="488.5" x2="732.5" y2="368.5" stroke="#2b2d42" stroke-width="1.5" opacity="1.0" />
    <line data-role="brace" x1="425.0" y1="488.5" x2="545.0" y2="368.5" stroke="#ede0d4" stroke-width="16" stroke-linecap="square" opacity="1.0" />
    <line x1="425.0" y1="488.5" x2="545.0" y2="368.5" stroke="#2b2d42" stroke-width="1.5" opacity="1.0" />
    <line data-role="brace" x1="612.4999999999998" y1="488.5" x2="732.4999999999998" y2="368.5" stroke="#ede0d4" stroke-width="16" stroke-linecap="square" opacity="0.4" />
    <line x1="612.4999999999998" y1="488.5" x2="732.4999999999998" y2="368.5" stroke="#2b2d42" stroke-width="1.5" opacity="0.4" />
    <line data-role="brace" x1="987.5" y1="488.5" x2="867.5" y2="368.5" stroke="#ede0d4" stroke-width="16" stroke-linecap="square" opacity="0.4" />
    <line x1="987.5" y1="488.5" x2="867.5" y2="368.5" stroke="#2b2d42" stroke-width="1.5" opacity="0.4" />
    <rect data-role="beam" x="425.0" y="368.5" width="750.0" height="75.0" fill="#e6ccb2" stroke="#2b2d42" stroke-width="2" />
    <text x="800.0" y="410.0" text-anchor="middle" font-family="monospace" font-size="12" font-weight="bold" fill="#1d3557">6x12 BEAM RING (M02)</text>
    <polygon data-role="rafter" data-id="R1" points="1167.0,368.5 1183.0,368.5 808.0,246.625 792.0,246.625" fill="#ddb892" stroke="#2b2d42" stroke-width="1.5" />
    <text x="987.5" y="292.5625" font-family="monospace" font-size="10" font-weight="bold" fill="#1d3557">R1</text>
    <polygon data-role="rafter" data-id="R2" points="979.5,368.5 995.5,368.5 808.0,246.625 792.0,246.625" fill="#ddb892" stroke="#2b2d42" stroke-width="1.5" />
    <text x="893.75" y="292.5625" font-family="monospace" font-size="10" font-weight="bold" fill="#1d3557">R2</text>
    <polygon data-role="rafter" data-id="R3" points="604.5,368.5 620.5,368.5 808.0,246.625 792.0,246.625" fill="#ddb892" stroke="#2b2d42" stroke-width="1.5" />
    <text x="706.25" y="292.5625" font-family="monospace" font-size="10" font-weight="bold" fill="#1d3557">R3</text>
    <polygon data-role="rafter" data-id="R4" points="417.0,368.5 433.0,368.5 808.0,246.625 792.0,246.625" fill="#ddb892" stroke="#2b2d42" stroke-width="1.5" />
    <text x="612.5" y="292.5625" font-family="monospace" font-size="10" font-weight="bold" fill="#1d3557">R4</text>
    <rect x="780.0" y="226.625" width="40" height="50" fill="#5d4037" stroke="#2b2d42" stroke-width="1.5" />
    <g data-role="dimension">
        <line x1="325.0" y1="368.5" x2="325.0" y2="1000" stroke="#3d5a80" stroke-width="1.2" />
        <line x1="325.0" y1="368.5" x2="325.0" y2="1000" stroke="#3d5a80" stroke-width="1.2" marker-start="url(#arrowhead)" marker-end="url(#arrowhead)" />
        <text x="310.0" y="684.25" text-anchor="middle" transform="rotate(-90,310.0,684.25)" font-family="sans-serif" font-size="13" font-weight="bold" fill="#1d3557">POST HEIGHT: 8.42 FT</text>
    </g>
    <g data-role="dimension">
        <line x1="1275.0" y1="246.625" x2="1275.0" y2="1000" stroke="#3d5a80" stroke-width="1.2" />
        <line x1="1275.0" y1="246.625" x2="1275.0" y2="1000" stroke="#3d5a80" stroke-width="1.2" marker-start="url(#arrowhead)" marker-end="url(#arrowhead)" />
        <text x="1260.0" y="623.3125" text-anchor="middle" transform="rotate(-90,1260.0,623.3125)" font-family="sans-serif" font-size="13" font-weight="bold" fill="#1d3557">TOTAL HEIGHT: 11.045 FT</text>
    </g>
    <g data-role="dimension">
        <line x1="1335.0" y1="368.5" x2="1335.0" y2="443.5" stroke="#3d5a80" stroke-width="1.2" />
        <line x1="1335.0" y1="368.5" x2="1335.0" y2="443.5" stroke="#3d5a80" stroke-width="1.2" marker-start="url(#arrowhead)" marker-end="url(#arrowhead)" />
        <text x="1320.0" y="406.0" text-anchor="middle" transform="rotate(-90,1320.0,406.0)" font-family="sans-serif" font-size="13" font-weight="bold" fill="#1d3557">BEAM: 1.00 FT</text>
    </g>
    <g data-role="dimension">
        <line x1="265.0" y1="246.625" x2="265.0" y2="368.5" stroke="#3d5a80" stroke-width="1.2" />
        <line x1="265.0" y1="246.625" x2="265.0" y2="368.5" stroke="#3d5a80" stroke-width="1.2" marker-start="url(#arrowhead)" marker-end="url(#arrowhead)" />
        <text x="250.0" y="307.5625" text-anchor="middle" transform="rotate(-90,250.0,307.5625)" font-family="sans-serif" font-size="13" font-weight="bold" fill="#1d3557">ROOF RISE: 1.62 FT</text>
    </g>
    <g data-role="dimension">
        <line x1="425.0" y1="1060" x2="1175.0" y2="1060" stroke="#3d5a80" stroke-width="1.2" />
        <line x1="425.0" y1="1060" x2="1175.0" y2="1060" stroke="#3d5a80" stroke-width="1.2" marker-start="url(#arrowhead)" marker-end="url(#arrowhead)" />
        <text x="800.0" y="1052.0" text-anchor="middle" font-family="sans-serif" font-size="13" font-weight="bold" fill="#1d3557">DIAGONAL OVERALL SPAN: 10.0 FT</text>
    </g>
    <g data-role="dimension">
        <line x1="612.5" y1="378.5" x2="532.5" y2="308.5" stroke="#1d3557" stroke-width="1" stroke-dasharray="2,2" />
        <circle cx="612.5" cy="378.5" r="3" fill="#1d3557" />
        <text x="527.5" y="312.5" text-anchor="end" font-family="sans-serif" font-size="11" font-weight="bold" fill="#1d3557">BEAM RING TENON DETAIL</text>
    </g>
    <g data-role="dimension">
        <line x1="800.0" y1="236.625" x2="980.0" y2="166.625" stroke="#1d3557" stroke-width="1" stroke-dasharray="2,2" />
        <circle cx="800.0" cy="236.625" r="3" fill="#1d3557" />
        <text x="985.0" y="170.625" text-anchor="start" font-family="sans-serif" font-size="11" font-weight="bold" fill="#1d3557">6x6 CENTRAL HUB CONNECTIONS</text>
    </g>
    <g transform="translate(100, 100)" font-family="monospace" fill="#1d3557">
        <rect x="-10" y="-20" width="320" height="90" fill="none" stroke="#2b2d42" stroke-width="1" stroke-dasharray="3,3" />
        <text x="0" y="0" font-size="14" font-weight="bold">FABRICATION DATA (ELEVATION):</text>
        <text x="0" y="25" font-size="12">ROOF PITCH: 4:12 (18.43°)</text>
        <text x="0" y="45" font-size="12">HIP RAFTER MITER: 28.71°</text>
        <text x="0" y="65" font-size="12">HIP RAFTER BEVEL: 9.10°</text>
    </g>
    <g data-role="title-block" transform="translate(1100, 850)">
        <rect width="400" height="150" fill="#ffffff" stroke="#2b2d42" stroke-width="1.8" />
        <line x1="0" y1="40" x2="400" y2="40" stroke="#2b2d42" stroke-width="1" />
        <text x="15" y="28" font-family="sans-serif" font-size="18" font-weight="bold" fill="#1d3557">DRAWING ELEVATION VIEW</text>
        <text x="15" y="60" font-family="sans-serif" font-size="11" fill="#1d3557">STRUCTURE: PERGOLA</text>
        <text x="15" y="80" font-family="sans-serif" font-size="11" fill="#1d3557">JURISDICTION: SAANICH, BC (BCBC COMPLIANT)</text>
        <text x="15" y="100" font-family="sans-serif" font-size="11" fill="#1d3557">SOURCE HASH: bda41784</text>
        <text x="15" y="120" font-family="sans-serif" font-size="11" fill="#1d3557">DATE: 2026-05-23 | SCALE: 1/2" = 1'-0"</text>
    </g>
    <!-- VALIDATOR_ANCHORS: 4:12 28.71° 9.1° -->
    <!-- SAW_SETTINGS: {"miter_deg": 28.71, "bevel_deg": 9.1} -->
    <!-- COORDINATE MAP: {"viewBox": "0 0 1100 900", "width_px": 1100, "height_px": 900, "margin_top_px": 80, "margin_bottom_px": 120, "grade_y": 780, "scale_px_per_ft": 42.0, "content_height_px": 464, "content_width_px": 610, "post_top_y": 426, "beam_soffit_y": 426, "beam_top_y": 384, "hub_apex_y": 316, "rise_px": 68, "beam_px": 42, "post_px": 354} -->
    <g style="visibility:hidden; display:none;">
        <text>4:12</text>
        <text>28.71</text>
        <text>9.1</text>
    </g>
</svg>