<?xml version="1.0" encoding="UTF-8"?>
<!-- GENERATED_BY: render_drawings.py INPUT_HASH: bda417845444b1738b606561a31cb04c619807b02d581032e0a3dcf42a306af6 -->
<svg xmlns="http://www.w3.org/2000/svg" viewBox="0 0 1600 1100" width="1600" height="1100">
    <defs>
        <marker id="arrowhead" viewBox="0 0 10 10" refX="0" refY="5" markerWidth="6" markerHeight="6" orient="auto-start-reverse">
            <path d="M 0 0 L 10 5 L 0 10 z" fill="#3d5a80" />
        </marker>
    </defs>
    <rect width="100%" height="100%" fill="#ffffff" />
    <rect x="20" y="20" width="1560" height="1060" fill="none" stroke="#2b2d42" stroke-width="1.8" />
    <polygon data-role="footing" data-id="FT1" points="1240.0,540.0 1240.0,460.0 1240.0,460.0 1240.0,540.0" fill="#e0e0e0" stroke="#2b2d42" stroke-width="1.2" stroke-dasharray="3,3" opacity="0.6" />
    <polygon points="1160.0,540.0 1160.0,540.0 1160.0,460.0 1160.0,460.0" fill="#b0b0b0" stroke="#2b2d42" stroke-width="1.2" stroke-dasharray="3,3" opacity="0.6" />
    <polygon points="1160.0,540.0 1240.0,540.0 1240.0,540.0 1160.0,540.0" fill="#d3d3d3" stroke="#2b2d42" stroke-width="1.2" stroke-dasharray="3,3" opacity="0.6" />
    <polygon points="1160.0,460.0 1160.0,460.0 1240.0,460.0 1240.0,460.0" fill="#c0c0c0" stroke="#2b2d42" stroke-width="1.2" stroke-dasharray="3,3" opacity="0.6" />
    <polygon data-role="footing" data-id="FT2" points="1040.0,886.4 1040.0,806.4 1040.0,806.4 1040.0,886.4" fill="#e0e0e0" stroke="#2b2d42" stroke-width="1.2" stroke-dasharray="3,3" opacity="0.6" />
    <polygon points="960.0,886.4 960.0,886.4 960.0,806.4 960.0,806.4" fill="#b0b0b0" stroke="#2b2d42" stroke-width="1.2" stroke-dasharray="3,3" opacity="0.6" />
    <polygon points="960.0,886.4 1040.0,886.4 1040.0,886.4 960.0,886.4" fill="#d3d3d3" stroke="#2b2d42" stroke-width="1.2" stroke-dasharray="3,3" opacity="0.6" />
    <polygon points="960.0,806.4 960.0,806.4 1040.0,806.4 1040.0,806.4" fill="#c0c0c0" stroke="#2b2d42" stroke-width="1.2" stroke-dasharray="3,3" opacity="0.6" />
    <polygon data-role="footing" data-id="FT3" points="640.0,886.4 640.0,806.4 640.0,806.4 640.0,886.4" fill="#e0e0e0" stroke="#2b2d42" stroke-width="1.2" stroke-dasharray="3,3" opacity="0.6" />
    <polygon points="560.0,886.4 560.0,886.4 560.0,806.4 560.0,806.4" fill="#b0b0b0" stroke="#2b2d42" stroke-width="1.2" stroke-dasharray="3,3" opacity="0.6" />
    <polygon points="560.0,886.4 640.0,886.4 640.0,886.4 560.0,886.4" fill="#d3d3d3" stroke="#2b2d42" stroke-width="1.2" stroke-dasharray="3,3" opacity="0.6" />
    <polygon points="560.0,806.4 560.0,806.4 640.0,806.4 640.0,806.4" fill="#c0c0c0" stroke="#2b2d42" stroke-width="1.2" stroke-dasharray="3,3" opacity="0.6" />
    <polygon data-role="footing" data-id="FT4" points="440.0,540.0 440.0,460.0 440.0,460.0 440.0,540.0" fill="#e0e0e0" stroke="#2b2d42" stroke-width="1.2" stroke-dasharray="3,3" opacity="0.6" />
    <polygon points="360.0,540.0 360.0,540.0 360.0,460.0 360.0,460.0" fill="#b0b0b0" stroke="#2b2d42" stroke-width="1.2" stroke-dasharray="3,3" opacity="0.6" />
    <polygon points="360.0,540.0 440.0,540.0 440.0,540.0 360.0,540.0" fill="#d3d3d3" stroke="#2b2d42" stroke-width="1.2" stroke-dasharray="3,3" opacity="0.6" />
    <polygon points="360.0,460.0 360.0,460.0 440.0,460.0 440.0,460.0" fill="#c0c0c0" stroke="#2b2d42" stroke-width="1.2" stroke-dasharray="3,3" opacity="0.6" />
    <polygon data-role="footing" data-id="FT5" points="640.0,193.6 640.0,113.6 640.0,113.6 640.0,193.6" fill="#e0e0e0" stroke="#2b2d42" stroke-width="1.2" stroke-dasharray="3,3" opacity="0.6" />
    <polygon points="560.0,193.6 560.0,193.6 560.0,113.6 560.0,113.6" fill="#b0b0b0" stroke="#2b2d42" stroke-width="1.2" stroke-dasharray="3,3" opacity="0.6" />
    <polygon points="560.0,193.6 640.0,193.6 640.0,193.6 560.0,193.6" fill="#d3d3d3" stroke="#2b2d42" stroke-width="1.2" stroke-dasharray="3,3" opacity="0.6" />
    <polygon points="560.0,113.6 560.0,113.6 640.0,113.6 640.0,113.6" fill="#c0c0c0" stroke="#2b2d42" stroke-width="1.2" stroke-dasharray="3,3" opacity="0.6" />
    <polygon data-role="footing" data-id="FT6" points="1040.0,193.6 1040.0,113.6 1040.0,113.6 1040.0,193.6" fill="#e0e0e0" stroke="#2b2d42" stroke-width="1.2" stroke-dasharray="3,3" opacity="0.6" />
    <polygon points="960.0,193.6 960.0,193.6 960.0,113.6 960.0,113.6" fill="#b0b0b0" stroke="#2b2d42" stroke-width="1.2" stroke-dasharray="3,3" opacity="0.6" />
    <polygon points="960.0,193.6 1040.0,193.6 1040.0,193.6 960.0,193.6" fill="#d3d3d3" stroke="#2b2d42" stroke-width="1.2" stroke-dasharray="3,3" opacity="0.6" />
    <polygon points="960.0,113.6 960.0,113.6 1040.0,113.6 1040.0,113.6" fill="#c0c0c0" stroke="#2b2d42" stroke-width="1.2" stroke-dasharray="3,3" opacity="0.6" />
    <polygon points="1160.0,540.0 1240.0,540.0 1240.0,460.0 1160.0,460.0" fill="#c8c8c8" stroke="#2b2d42" stroke-width="1.2" stroke-dasharray="3,3" opacity="0.6" />
    <polygon points="960.0,886.4 1040.0,886.4 1040.0,806.4 960.0,806.4" fill="#c8c8c8" stroke="#2b2d42" stroke-width="1.2" stroke-dasharray="3,3" opacity="0.6" />
    <polygon points="560.0,886.4 640.0,886.4 640.0,806.4 560.0,806.4" fill="#c8c8c8" stroke="#2b2d42" stroke-width="1.2" stroke-dasharray="3,3" opacity="0.6" />
    <polygon points="360.0,540.0 440.0,540.0 440.0,460.0 360.0,460.0" fill="#c8c8c8" stroke="#2b2d42" stroke-width="1.2" stroke-dasharray="3,3" opacity="0.6" />
    <polygon points="560.0,193.6 640.0,193.6 640.0,113.6 560.0,113.6" fill="#c8c8c8" stroke="#2b2d42" stroke-width="1.2" stroke-dasharray="3,3" opacity="0.6" />
    <polygon points="960.0,193.6 1040.0,193.6 1040.0,113.6 960.0,113.6" fill="#c8c8c8" stroke="#2b2d42" stroke-width="1.2" stroke-dasharray="3,3" opacity="0.6" />
    <polygon data-role="post" data-id="P1" points="1218.3,518.3 1218.3,481.7 1218.3,481.7 1218.3,518.3" fill="#f1e5cd" stroke="#2b2d42" stroke-width="1.5" />
    <polygon points="1181.7,518.3 1181.7,518.3 1181.7,481.7 1181.7,481.7" fill="#c8b090" stroke="#2b2d42" stroke-width="1.5" />
    <polygon points="1181.7,518.3 1218.3,518.3 1218.3,518.3 1181.7,518.3" fill="#ecdfc8" stroke="#2b2d42" stroke-width="1.5" />
    <polygon points="1181.7,481.7 1181.7,481.7 1218.3,481.7 1218.3,481.7" fill="#e0c9a4" stroke="#2b2d42" stroke-width="1.5" />
    <polygon data-role="post" data-id="P2" points="1018.3,864.7 1018.3,828.1 1018.3,828.1 1018.3,864.7" fill="#f1e5cd" stroke="#2b2d42" stroke-width="1.5" />
    <polygon points="981.7,864.7 981.7,864.7 981.7,828.1 981.7,828.1" fill="#c8b090" stroke="#2b2d42" stroke-width="1.5" />
    <polygon points="981.7,864.7 1018.3,864.7 1018.3,864.7 981.7,864.7" fill="#ecdfc8" stroke="#2b2d42" stroke-width="1.5" />
    <polygon points="981.7,828.1 981.7,828.1 1018.3,828.1 1018.3,828.1" fill="#e0c9a4" stroke="#2b2d42" stroke-width="1.5" />
    <polygon data-role="post" data-id="P3" points="618.3,864.7 618.3,828.1 618.3,828.1 618.3,864.7" fill="#f1e5cd" stroke="#2b2d42" stroke-width="1.5" />
    <polygon points="581.7,864.7 581.7,864.7 581.7,828.1 581.7,828.1" fill="#c8b090" stroke="#2b2d42" stroke-width="1.5" />
    <polygon points="581.7,864.7 618.3,864.7 618.3,864.7 581.7,864.7" fill="#ecdfc8" stroke="#2b2d42" stroke-width="1.5" />
    <polygon points="581.7,828.1 581.7,828.1 618.3,828.1 618.3,828.1" fill="#e0c9a4" stroke="#2b2d42" stroke-width="1.5" />
    <polygon data-role="post" data-id="P4" points="418.3,518.3 418.3,481.7 418.3,481.7 418.3,518.3" fill="#f1e5cd" stroke="#2b2d42" stroke-width="1.5" />
    <polygon points="381.7,518.3 381.7,518.3 381.7,481.7 381.7,481.7" fill="#c8b090" stroke="#2b2d42" stroke-width="1.5" />
    <polygon points="381.7,518.3 418.3,518.3 418.3,518.3 381.7,518.3" fill="#ecdfc8" stroke="#2b2d42" stroke-width="1.5" />
    <polygon points="381.7,481.7 381.7,481.7 418.3,481.7 418.3,481.7" fill="#e0c9a4" stroke="#2b2d42" stroke-width="1.5" />
    <polygon data-role="post" data-id="P5" points="618.3,171.9 618.3,135.3 618.3,135.3 618.3,171.9" fill="#f1e5cd" stroke="#2b2d42" stroke-width="1.5" />
    <polygon points="581.7,171.9 581.7,171.9 581.7,135.3 581.7,135.3" fill="#c8b090" stroke="#2b2d42" stroke-width="1.5" />
    <polygon points="581.7,171.9 618.3,171.9 618.3,171.9 581.7,171.9" fill="#ecdfc8" stroke="#2b2d42" stroke-width="1.5" />
    <polygon points="581.7,135.3 581.7,135.3 618.3,135.3 618.3,135.3" fill="#e0c9a4" stroke="#2b2d42" stroke-width="1.5" />
    <polygon data-role="post" data-id="P6" points="1018.3,171.9 1018.3,135.3 1018.3,135.3 1018.3,171.9" fill="#f1e5cd" stroke="#2b2d42" stroke-width="1.5" />
    <polygon points="981.7,171.9 981.7,171.9 981.7,135.3 981.7,135.3" fill="#c8b090" stroke="#2b2d42" stroke-width="1.5" />
    <polygon points="981.7,171.9 1018.3,171.9 1018.3,171.9 981.7,171.9" fill="#ecdfc8" stroke="#2b2d42" stroke-width="1.5" />
    <polygon points="981.7,135.3 981.7,135.3 1018.3,135.3 1018.3,135.3" fill="#e0c9a4" stroke="#2b2d42" stroke-width="1.5" />
    <polygon data-role="brace" data-id="Brace0a" points="1196.8,528.9 1205.1,514.6 1104.0,689.6 1095.8,703.9" fill="#e8d8b8" stroke="#2b2d42" stroke-width="1.5" />
    <polygon points="1176.6,517.2 1075.6,692.2 1083.8,677.9 1184.9,502.9" fill="#d8c4a0" stroke="#2b2d42" stroke-width="1.5" />
    <polygon data-role="brace" data-id="Brace0b" points="1003.2,817.6 994.9,831.8 1096.0,656.8 1104.2,642.5" fill="#e8d8b8" stroke="#2b2d42" stroke-width="1.5" />
    <polygon points="1023.4,829.2 1124.4,654.2 1116.2,668.5 1015.1,843.5" fill="#d8c4a0" stroke="#2b2d42" stroke-width="1.5" />
    <polygon data-role="brace" data-id="Brace1a" points="973.4,858.1 989.9,858.1 787.8,858.1 771.3,858.1" fill="#e8d8b8" stroke="#2b2d42" stroke-width="1.5" />
    <polygon points="973.4,834.7 771.3,834.7 787.8,834.7 989.9,834.7" fill="#d8c4a0" stroke="#2b2d42" stroke-width="1.5" />
    <polygon data-role="brace" data-id="Brace1b" points="626.6,834.7 610.1,834.7 812.2,834.7 828.7,834.7" fill="#e8d8b8" stroke="#2b2d42" stroke-width="1.5" />
    <polygon points="626.6,858.1 828.7,858.1 812.2,858.1 610.1,858.1" fill="#d8c4a0" stroke="#2b2d42" stroke-width="1.5" />
    <polygon data-role="brace" data-id="Brace2a" points="576.6,829.2 584.9,843.5 483.8,668.5 475.6,654.2" fill="#e8d8b8" stroke="#2b2d42" stroke-width="1.5" />
    <polygon points="596.8,817.6 495.8,642.5 504.0,656.8 605.1,831.8" fill="#d8c4a0" stroke="#2b2d42" stroke-width="1.5" />
    <polygon data-role="brace" data-id="Brace2b" points="423.4,517.2 415.1,502.9 516.2,677.9 524.4,692.2" fill="#e8d8b8" stroke="#2b2d42" stroke-width="1.5" />
    <polygon points="403.2,528.9 504.2,703.9 496.0,689.6 394.9,514.6" fill="#d8c4a0" stroke="#2b2d42" stroke-width="1.5" />
    <polygon data-role="brace" data-id="Brace3a" points="403.2,471.1 394.9,485.4 496.0,310.4 504.2,296.1" fill="#e8d8b8" stroke="#2b2d42" stroke-width="1.5" />
    <polygon points="423.4,482.8 524.4,307.8 516.2,322.1 415.1,497.1" fill="#d8c4a0" stroke="#2b2d42" stroke-width="1.5" />
    <polygon data-role="brace" data-id="Brace3b" points="596.8,182.4 605.1,168.2 504.0,343.2 495.8,357.5" fill="#e8d8b8" stroke="#2b2d42" stroke-width="1.5" />
    <polygon points="576.6,170.8 475.6,345.8 483.8,331.5 584.9,156.5" fill="#d8c4a0" stroke="#2b2d42" stroke-width="1.5" />
    <polygon data-role="brace" data-id="Brace4a" points="626.6,141.9 610.1,141.9 812.2,141.9 828.7,141.9" fill="#e8d8b8" stroke="#2b2d42" stroke-width="1.5" />
    <polygon points="626.6,165.3 828.7,165.3 812.2,165.3 610.1,165.3" fill="#d8c4a0" stroke="#2b2d42" stroke-width="1.5" />
    <polygon data-role="brace" data-id="Brace4b" points="973.4,165.3 989.9,165.3 787.8,165.3 771.3,165.3" fill="#e8d8b8" stroke="#2b2d42" stroke-width="1.5" />
    <polygon points="973.4,141.9 771.3,141.9 787.8,141.9 989.9,141.9" fill="#d8c4a0" stroke="#2b2d42" stroke-width="1.5" />
    <polygon data-role="brace" data-id="Brace5a" points="1023.4,170.8 1015.1,156.5 1116.2,331.5 1124.4,345.8" fill="#e8d8b8" stroke="#2b2d42" stroke-width="1.5" />
    <polygon points="1003.2,182.4 1104.2,357.5 1096.0,343.2 994.9,168.2" fill="#d8c4a0" stroke="#2b2d42" stroke-width="1.5" />
    <polygon data-role="brace" data-id="Brace5b" points="1176.6,482.8 1184.9,497.1 1083.8,322.1 1075.6,307.8" fill="#e8d8b8" stroke="#2b2d42" stroke-width="1.5" />
    <polygon points="1196.8,471.1 1095.8,296.1 1104.0,310.4 1205.1,485.4" fill="#d8c4a0" stroke="#2b2d42" stroke-width="1.5" />
    <polygon points="1205.1,514.6 1184.9,502.9 1083.8,677.9 1104.0,689.6" fill="#f0e4cc" stroke="#2b2d42" stroke-width="1.5" />
    <polygon points="994.9,831.8 1015.1,843.5 1116.2,668.5 1096.0,656.8" fill="#f0e4cc" stroke="#2b2d42" stroke-width="1.5" />
    <polygon points="989.9,858.1 989.9,834.7 787.8,834.7 787.8,858.1" fill="#f0e4cc" stroke="#2b2d42" stroke-width="1.5" />
    <polygon points="610.1,834.7 610.1,858.1 812.2,858.1 812.2,834.7" fill="#f0e4cc" stroke="#2b2d42" stroke-width="1.5" />
    <polygon points="584.9,843.5 605.1,831.8 504.0,656.8 483.8,668.5" fill="#f0e4cc" stroke="#2b2d42" stroke-width="1.5" />
    <polygon points="415.1,502.9 394.9,514.6 496.0,689.6 516.2,677.9" fill="#f0e4cc" stroke="#2b2d42" stroke-width="1.5" />
    <polygon points="394.9,485.4 415.1,497.1 516.2,322.1 496.0,310.4" fill="#f0e4cc" stroke="#2b2d42" stroke-width="1.5" />
    <polygon points="605.1,168.2 584.9,156.5 483.8,331.5 504.0,343.2" fill="#f0e4cc" stroke="#2b2d42" stroke-width="1.5" />
    <polygon points="610.1,141.9 610.1,165.3 812.2,165.3 812.2,141.9" fill="#f0e4cc" stroke="#2b2d42" stroke-width="1.5" />
    <polygon points="989.9,165.3 989.9,141.9 787.8,141.9 787.8,165.3" fill="#f0e4cc" stroke="#2b2d42" stroke-width="1.5" />
    <polygon points="1015.1,156.5 994.9,168.2 1096.0,343.2 1116.2,331.5" fill="#f0e4cc" stroke="#2b2d42" stroke-width="1.5" />
    <polygon points="1184.9,497.1 1205.1,485.4 1104.0,310.4 1083.8,322.1" fill="#f0e4cc" stroke="#2b2d42" stroke-width="1.5" />
    <polygon points="1181.7,518.3 1218.3,518.3 1218.3,481.7 1181.7,481.7" fill="#e8dabc" stroke="#2b2d42" stroke-width="1.5" />
    <polygon points="981.7,864.7 1018.3,864.7 1018.3,828.1 981.7,828.1" fill="#e8dabc" stroke="#2b2d42" stroke-width="1.5" />
    <polygon points="581.7,864.7 618.3,864.7 618.3,828.1 581.7,828.1" fill="#e8dabc" stroke="#2b2d42" stroke-width="1.5" />
    <polygon points="381.7,518.3 418.3,518.3 418.3,481.7 381.7,481.7" fill="#e8dabc" stroke="#2b2d42" stroke-width="1.5" />
    <polygon points="581.7,171.9 618.3,171.9 618.3,135.3 581.7,135.3" fill="#e8dabc" stroke="#2b2d42" stroke-width="1.5" />
    <polygon points="981.7,171.9 1018.3,171.9 1018.3,135.3 981.7,135.3" fill="#e8dabc" stroke="#2b2d42" stroke-width="1.5" />
    <polygon points="1095.8,703.9 1104.0,689.6 1083.8,677.9 1075.6,692.2" fill="#e0d0b0" stroke="#2b2d42" stroke-width="1.5" />
    <polygon points="1104.2,642.5 1096.0,656.8 1116.2,668.5 1124.4,654.2" fill="#e0d0b0" stroke="#2b2d42" stroke-width="1.5" />
    <polygon points="771.3,858.1 787.8,858.1 787.8,834.7 771.3,834.7" fill="#e0d0b0" stroke="#2b2d42" stroke-width="1.5" />
    <polygon points="828.7,834.7 812.2,834.7 812.2,858.1 828.7,858.1" fill="#e0d0b0" stroke="#2b2d42" stroke-width="1.5" />
    <polygon points="475.6,654.2 483.8,668.5 504.0,656.8 495.8,642.5" fill="#e0d0b0" stroke="#2b2d42" stroke-width="1.5" />
    <polygon points="524.4,692.2 516.2,677.9 496.0,689.6 504.2,703.9" fill="#e0d0b0" stroke="#2b2d42" stroke-width="1.5" />
    <polygon points="504.2,296.1 496.0,310.4 516.2,322.1 524.4,307.8" fill="#e0d0b0" stroke="#2b2d42" stroke-width="1.5" />
    <polygon points="495.8,357.5 504.0,343.2 483.8,331.5 475.6,345.8" fill="#e0d0b0" stroke="#2b2d42" stroke-width="1.5" />
    <polygon points="828.7,141.9 812.2,141.9 812.2,165.3 828.7,165.3" fill="#e0d0b0" stroke="#2b2d42" stroke-width="1.5" />
    <polygon points="771.3,165.3 787.8,165.3 787.8,141.9 771.3,141.9" fill="#e0d0b0" stroke="#2b2d42" stroke-width="1.5" />
    <polygon points="1124.4,345.8 1116.2,331.5 1096.0,343.2 1104.2,357.5" fill="#e0d0b0" stroke="#2b2d42" stroke-width="1.5" />
    <polygon points="1075.6,307.8 1083.8,322.1 1104.0,310.4 1095.8,296.1" fill="#e0d0b0" stroke="#2b2d42" stroke-width="1.5" />
    <polygon data-role="beam" data-id="B1" points="1215.9,509.2 1215.9,509.2 1015.9,855.6 1015.9,855.6" fill="#d4a878" stroke="#2b2d42" stroke-width="1.5" />
    <polygon points="1184.1,490.8 984.1,837.2 984.1,837.2 1184.1,490.8" fill="#c89860" stroke="#2b2d42" stroke-width="1.5" />
    <polygon points="1215.9,509.2 1184.1,490.8 1184.1,490.8 1215.9,509.2" fill="#d0a070" stroke="#2b2d42" stroke-width="1.5" />
    <polygon points="1015.9,855.6 1015.9,855.6 984.1,837.2 984.1,837.2" fill="#d0a070" stroke="#2b2d42" stroke-width="1.5" />
    <polygon data-role="beam" data-id="B2" points="1000.0,864.7 1000.0,864.7 600.0,864.7 600.0,864.7" fill="#d4a878" stroke="#2b2d42" stroke-width="1.5" />
    <polygon points="1000.0,828.1 600.0,828.1 600.0,828.1 1000.0,828.1" fill="#c89860" stroke="#2b2d42" stroke-width="1.5" />
    <polygon points="1000.0,864.7 1000.0,828.1 1000.0,828.1 1000.0,864.7" fill="#d0a070" stroke="#2b2d42" stroke-width="1.5" />
    <polygon points="600.0,864.7 600.0,864.7 600.0,828.1 600.0,828.1" fill="#d0a070" stroke="#2b2d42" stroke-width="1.5" />
    <polygon data-role="beam" data-id="B3" points="584.1,855.6 584.1,855.6 384.1,509.2 384.1,509.2" fill="#d4a878" stroke="#2b2d42" stroke-width="1.5" />
    <polygon points="615.9,837.2 415.9,490.8 415.9,490.8 615.9,837.2" fill="#c89860" stroke="#2b2d42" stroke-width="1.5" />
    <polygon points="584.1,855.6 615.9,837.2 615.9,837.2 584.1,855.6" fill="#d0a070" stroke="#2b2d42" stroke-width="1.5" />
    <polygon points="384.1,509.2 384.1,509.2 415.9,490.8 415.9,490.8" fill="#d0a070" stroke="#2b2d42" stroke-width="1.5" />
    <polygon data-role="beam" data-id="B4" points="384.1,490.8 384.1,490.8 584.1,144.4 584.1,144.4" fill="#d4a878" stroke="#2b2d42" stroke-width="1.5" />
    <polygon points="415.9,509.2 615.9,162.8 615.9,162.8 415.9,509.2" fill="#c89860" stroke="#2b2d42" stroke-width="1.5" />
    <polygon points="384.1,490.8 415.9,509.2 415.9,509.2 384.1,490.8" fill="#d0a070" stroke="#2b2d42" stroke-width="1.5" />
    <polygon points="584.1,144.4 584.1,144.4 615.9,162.8 615.9,162.8" fill="#d0a070" stroke="#2b2d42" stroke-width="1.5" />
    <polygon data-role="beam" data-id="B5" points="600.0,135.3 600.0,135.3 1000.0,135.3 1000.0,135.3" fill="#d4a878" stroke="#2b2d42" stroke-width="1.5" />
    <polygon points="600.0,171.9 1000.0,171.9 1000.0,171.9 600.0,171.9" fill="#c89860" stroke="#2b2d42" stroke-width="1.5" />
    <polygon points="600.0,135.3 600.0,171.9 600.0,171.9 600.0,135.3" fill="#d0a070" stroke="#2b2d42" stroke-width="1.5" />
    <polygon points="1000.0,135.3 1000.0,135.3 1000.0,171.9 1000.0,171.9" fill="#d0a070" stroke="#2b2d42" stroke-width="1.5" />
    <polygon data-role="beam" data-id="B6" points="1015.9,144.4 1015.9,144.4 1215.9,490.8 1215.9,490.8" fill="#d4a878" stroke="#2b2d42" stroke-width="1.5" />
    <polygon points="984.1,162.8 1184.1,509.2 1184.1,509.2 984.1,162.8" fill="#c89860" stroke="#2b2d42" stroke-width="1.5" />
    <polygon points="1015.9,144.4 984.1,162.8 984.1,162.8 1015.9,144.4" fill="#d0a070" stroke="#2b2d42" stroke-width="1.5" />
    <polygon points="1215.9,490.8 1215.9,490.8 1184.1,509.2 1184.1,509.2" fill="#d0a070" stroke="#2b2d42" stroke-width="1.5" />
    <polygon points="1215.9,509.2 1184.1,490.8 984.1,837.2 1015.9,855.6" fill="#e8d4b0" stroke="#2b2d42" stroke-width="1.5" />
    <polygon points="1000.0,864.7 1000.0,828.1 600.0,828.1 600.0,864.7" fill="#e8d4b0" stroke="#2b2d42" stroke-width="1.5" />
    <polygon points="584.1,855.6 615.9,837.2 415.9,490.8 384.1,509.2" fill="#e8d4b0" stroke="#2b2d42" stroke-width="1.5" />
    <polygon points="384.1,490.8 415.9,509.2 615.9,162.8 584.1,144.4" fill="#e8d4b0" stroke="#2b2d42" stroke-width="1.5" />
    <polygon points="600.0,135.3 600.0,171.9 1000.0,171.9 1000.0,135.3" fill="#e8d4b0" stroke="#2b2d42" stroke-width="1.5" />
    <polygon points="1015.9,144.4 984.1,162.8 1184.1,509.2 1215.9,490.8" fill="#e8d4b0" stroke="#2b2d42" stroke-width="1.5" />
    <polygon data-role="rafter" data-id="Jack0a" points="1189.7,669.2 1197.2,673.5 927.9,518.1 920.4,513.7" fill="#ddb892" stroke="#2b2d42" stroke-width="1.5" />
    <polygon points="1208.0,637.4 938.7,481.9 946.3,486.3 1215.6,641.8" fill="#a87850" stroke="#2b2d42" stroke-width="1.5" />
    <polygon data-role="rafter" data-id="Jack0b" points="1123.0,784.6 1130.6,789.0 861.3,633.5 853.7,629.2" fill="#ddb892" stroke="#2b2d42" stroke-width="1.5" />
    <polygon points="1141.3,752.9 872.1,597.4 879.6,601.8 1148.9,757.2" fill="#a87850" stroke="#2b2d42" stroke-width="1.5" />
    <polygon data-role="rafter" data-id="Jack1a" points="848.3,922.1 848.3,930.8 848.3,619.8 848.3,611.1" fill="#ddb892" stroke="#2b2d42" stroke-width="1.5" />
    <polygon points="885.0,922.1 885.0,611.1 885.0,619.8 885.0,930.8" fill="#a87850" stroke="#2b2d42" stroke-width="1.5" />
    <polygon data-role="rafter" data-id="Jack1b" points="715.0,922.1 715.0,930.8 715.0,619.8 715.0,611.1" fill="#ddb892" stroke="#2b2d42" stroke-width="1.5" />
    <polygon points="751.7,922.1 751.7,611.1 751.7,619.8 751.7,930.8" fill="#a87850" stroke="#2b2d42" stroke-width="1.5" />
    <polygon data-role="rafter" data-id="Jack2a" points="458.7,752.9 451.1,757.2 720.4,601.8 727.9,597.4" fill="#ddb892" stroke="#2b2d42" stroke-width="1.5" />
    <polygon points="477.0,784.6 746.3,629.2 738.7,633.5 469.4,789.0" fill="#a87850" stroke="#2b2d42" stroke-width="1.5" />
    <polygon data-role="rafter" data-id="Jack2b" points="392.0,637.4 384.4,641.8 653.7,486.3 661.3,481.9" fill="#ddb892" stroke="#2b2d42" stroke-width="1.5" />
    <polygon points="410.3,669.2 679.6,513.7 672.1,518.1 402.8,673.5" fill="#a87850" stroke="#2b2d42" stroke-width="1.5" />
    <polygon data-role="rafter" data-id="Jack3a" points="410.3,330.8 402.8,326.5 672.1,481.9 679.6,486.3" fill="#ddb892" stroke="#2b2d42" stroke-width="1.5" />
    <polygon points="392.0,362.6 661.3,518.1 653.7,513.7 384.4,358.2" fill="#a87850" stroke="#2b2d42" stroke-width="1.5" />
    <polygon data-role="rafter" data-id="Jack3b" points="477.0,215.4 469.4,211.0 738.7,366.5 746.3,370.8" fill="#ddb892" stroke="#2b2d42" stroke-width="1.5" />
    <polygon points="458.7,247.1 727.9,402.6 720.4,398.2 451.1,242.8" fill="#a87850" stroke="#2b2d42" stroke-width="1.5" />
    <polygon data-role="rafter" data-id="Jack4a" points="751.7,77.9 751.7,69.2 751.7,380.2 751.7,388.9" fill="#ddb892" stroke="#2b2d42" stroke-width="1.5" />
    <polygon points="715.0,77.9 715.0,388.9 715.0,380.2 715.0,69.2" fill="#a87850" stroke="#2b2d42" stroke-width="1.5" />
    <polygon data-role="rafter" data-id="Jack4b" points="885.0,77.9 885.0,69.2 885.0,380.2 885.0,388.9" fill="#ddb892" stroke="#2b2d42" stroke-width="1.5" />
    <polygon points="848.3,77.9 848.3,388.9 848.3,380.2 848.3,69.2" fill="#a87850" stroke="#2b2d42" stroke-width="1.5" />
    <polygon data-role="rafter" data-id="Jack5a" points="1141.3,247.1 1148.9,242.8 879.6,398.2 872.1,402.6" fill="#ddb892" stroke="#2b2d42" stroke-width="1.5" />
    <polygon points="1123.0,215.4 853.7,370.8 861.3,366.5 1130.6,211.0" fill="#a87850" stroke="#2b2d42" stroke-width="1.5" />
    <polygon data-role="rafter" data-id="Jack5b" points="1208.0,362.6 1215.6,358.2 946.3,513.7 938.7,518.1" fill="#ddb892" stroke="#2b2d42" stroke-width="1.5" />
    <polygon points="1189.7,330.8 920.4,486.3 927.9,481.9 1197.2,326.5" fill="#a87850" stroke="#2b2d42" stroke-width="1.5" />
    <polygon points="1215.6,641.8 946.3,486.3 927.9,518.1 1197.2,673.5" fill="#b88860" stroke="#2b2d42" stroke-width="1.5" />
    <polygon points="469.4,789.0 738.7,633.5 720.4,601.8 451.1,757.2" fill="#b88860" stroke="#2b2d42" stroke-width="1.5" />
    <polygon points="384.4,358.2 653.7,513.7 672.1,481.9 402.8,326.5" fill="#b88860" stroke="#2b2d42" stroke-width="1.5" />
    <polygon points="715.0,69.2 715.0,380.2 751.7,380.2 751.7,69.2" fill="#b88860" stroke="#2b2d42" stroke-width="1.5" />
    <polygon points="1130.6,211.0 861.3,366.5 879.6,398.2 1148.9,242.8" fill="#b88860" stroke="#2b2d42" stroke-width="1.5" />
    <polygon points="1148.9,757.2 879.6,601.8 861.3,633.5 1130.6,789.0" fill="#b88860" stroke="#2b2d42" stroke-width="1.5" />
    <polygon points="885.0,930.8 885.0,619.8 848.3,619.8 848.3,930.8" fill="#b88860" stroke="#2b2d42" stroke-width="1.5" />
    <polygon points="751.7,930.8 751.7,619.8 715.0,619.8 715.0,930.8" fill="#b88860" stroke="#2b2d42" stroke-width="1.5" />
    <polygon points="402.8,673.5 672.1,518.1 653.7,486.3 384.4,641.8" fill="#b88860" stroke="#2b2d42" stroke-width="1.5" />
    <polygon points="451.1,242.8 720.4,398.2 738.7,366.5 469.4,211.0" fill="#b88860" stroke="#2b2d42" stroke-width="1.5" />
    <polygon points="848.3,69.2 848.3,380.2 885.0,380.2 885.0,69.2" fill="#b88860" stroke="#2b2d42" stroke-width="1.5" />
    <polygon points="1197.2,326.5 927.9,481.9 946.3,513.7 1215.6,358.2" fill="#b88860" stroke="#2b2d42" stroke-width="1.5" />
    <polygon data-role="rafter" data-id="R1" points="1276.2,518.3 1283.8,518.3 830.4,518.3 822.7,518.3" fill="#ddb892" stroke="#2b2d42" stroke-width="1.5" />
    <polygon points="1276.2,481.7 822.7,481.7 830.4,481.7 1283.8,481.7" fill="#a87850" stroke="#2b2d42" stroke-width="1.5" />
    <polygon data-role="rafter" data-id="R2" points="1022.2,921.5 1026.0,928.2 799.3,535.5 795.5,528.8" fill="#ddb892" stroke="#2b2d42" stroke-width="1.5" />
    <polygon points="1054.0,903.2 827.2,510.5 831.1,517.1 1057.8,909.8" fill="#a87850" stroke="#2b2d42" stroke-width="1.5" />
    <polygon data-role="rafter" data-id="R3" points="546.0,903.2 542.2,909.8 768.9,517.1 772.8,510.5" fill="#ddb892" stroke="#2b2d42" stroke-width="1.5" />
    <polygon points="577.8,921.5 804.5,528.8 800.7,535.5 574.0,928.2" fill="#a87850" stroke="#2b2d42" stroke-width="1.5" />
    <polygon data-role="rafter" data-id="R4" points="323.8,481.7 316.2,481.7 769.6,481.7 777.3,481.7" fill="#ddb892" stroke="#2b2d42" stroke-width="1.5" />
    <polygon points="323.8,518.3 777.3,518.3 769.6,518.3 316.2,518.3" fill="#a87850" stroke="#2b2d42" stroke-width="1.5" />
    <polygon data-role="rafter" data-id="R5" points="577.8,78.5 574.0,71.8 800.7,464.5 804.5,471.2" fill="#ddb892" stroke="#2b2d42" stroke-width="1.5" />
    <polygon points="546.0,96.8 772.8,489.5 768.9,482.9 542.2,90.2" fill="#a87850" stroke="#2b2d42" stroke-width="1.5" />
    <polygon data-role="rafter" data-id="R6" points="1054.0,96.8 1057.8,90.2 831.1,482.9 827.2,489.5" fill="#ddb892" stroke="#2b2d42" stroke-width="1.5" />
    <polygon points="1022.2,78.5 795.5,471.2 799.3,464.5 1026.0,71.8" fill="#a87850" stroke="#2b2d42" stroke-width="1.5" />
    <polygon points="1283.8,481.7 830.4,481.7 830.4,518.3 1283.8,518.3" fill="#b88860" stroke="#2b2d42" stroke-width="1.5" />
    <polygon points="1057.8,909.8 831.1,517.1 799.3,535.5 1026.0,928.2" fill="#b88860" stroke="#2b2d42" stroke-width="1.5" />
    <polygon points="574.0,928.2 800.7,535.5 768.9,517.1 542.2,909.8" fill="#b88860" stroke="#2b2d42" stroke-width="1.5" />
    <polygon points="316.2,518.3 769.6,518.3 769.6,481.7 316.2,481.7" fill="#b88860" stroke="#2b2d42" stroke-width="1.5" />
    <polygon points="542.2,90.2 768.9,482.9 800.7,464.5 574.0,71.8" fill="#b88860" stroke="#2b2d42" stroke-width="1.5" />
    <polygon points="1026.0,71.8 799.3,464.5 831.1,482.9 1057.8,90.2" fill="#b88860" stroke="#2b2d42" stroke-width="1.5" />
    <polygon data-role="purlin" data-id="Purlin1" points="1004.7,505.8 1004.7,505.8 907.4,674.4 907.4,674.4" fill="#e8d8b8" stroke="#2b2d42" stroke-width="1.5" />
    <polygon points="984.5,494.2 887.2,662.7 887.2,662.7 984.5,494.2" fill="#d8c4a0" stroke="#2b2d42" stroke-width="1.5" />
    <polygon points="1004.7,505.8 984.5,494.2 984.5,494.2 1004.7,505.8" fill="#e0d0b0" stroke="#2b2d42" stroke-width="1.5" />
    <polygon points="907.4,674.4 907.4,674.4 887.2,662.7 887.2,662.7" fill="#e0d0b0" stroke="#2b2d42" stroke-width="1.5" />
    <polygon data-role="purlin" data-id="Purlin2" points="897.3,680.2 897.3,680.2 702.7,680.2 702.7,680.2" fill="#e8d8b8" stroke="#2b2d42" stroke-width="1.5" />
    <polygon points="897.3,656.9 702.7,656.9 702.7,656.9 897.3,656.9" fill="#d8c4a0" stroke="#2b2d42" stroke-width="1.5" />
    <polygon points="897.3,680.2 897.3,656.9 897.3,656.9 897.3,680.2" fill="#e0d0b0" stroke="#2b2d42" stroke-width="1.5" />
    <polygon points="702.7,680.2 702.7,680.2 702.7,656.9 702.7,656.9" fill="#e0d0b0" stroke="#2b2d42" stroke-width="1.5" />
    <polygon data-role="purlin" data-id="Purlin3" points="692.6,674.4 692.6,674.4 595.3,505.8 595.3,505.8" fill="#e8d8b8" stroke="#2b2d42" stroke-width="1.5" />
    <polygon points="712.8,662.7 615.5,494.2 615.5,494.2 712.8,662.7" fill="#d8c4a0" stroke="#2b2d42" stroke-width="1.5" />
    <polygon points="692.6,674.4 712.8,662.7 712.8,662.7 692.6,674.4" fill="#e0d0b0" stroke="#2b2d42" stroke-width="1.5" />
    <polygon points="595.3,505.8 595.3,505.8 615.5,494.2 615.5,494.2" fill="#e0d0b0" stroke="#2b2d42" stroke-width="1.5" />
    <polygon data-role="purlin" data-id="Purlin4" points="595.3,494.2 595.3,494.2 692.6,325.6 692.6,325.6" fill="#e8d8b8" stroke="#2b2d42" stroke-width="1.5" />
    <polygon points="615.5,505.8 712.8,337.3 712.8,337.3 615.5,505.8" fill="#d8c4a0" stroke="#2b2d42" stroke-width="1.5" />
    <polygon points="595.3,494.2 615.5,505.8 615.5,505.8 595.3,494.2" fill="#e0d0b0" stroke="#2b2d42" stroke-width="1.5" />
    <polygon points="692.6,325.6 692.6,325.6 712.8,337.3 712.8,337.3" fill="#e0d0b0" stroke="#2b2d42" stroke-width="1.5" />
    <polygon data-role="purlin" data-id="Purlin5" points="702.7,319.8 702.7,319.8 897.3,319.8 897.3,319.8" fill="#e8d8b8" stroke="#2b2d42" stroke-width="1.5" />
    <polygon points="702.7,343.1 897.3,343.1 897.3,343.1 702.7,343.1" fill="#d8c4a0" stroke="#2b2d42" stroke-width="1.5" />
    <polygon points="702.7,319.8 702.7,343.1 702.7,343.1 702.7,319.8" fill="#e0d0b0" stroke="#2b2d42" stroke-width="1.5" />
    <polygon points="897.3,319.8 897.3,319.8 897.3,343.1 897.3,343.1" fill="#e0d0b0" stroke="#2b2d42" stroke-width="1.5" />
    <polygon data-role="purlin" data-id="Purlin6" points="907.4,325.6 907.4,325.6 1004.7,494.2 1004.7,494.2" fill="#e8d8b8" stroke="#2b2d42" stroke-width="1.5" />
    <polygon points="887.2,337.3 984.5,505.8 984.5,505.8 887.2,337.3" fill="#d8c4a0" stroke="#2b2d42" stroke-width="1.5" />
    <polygon points="907.4,325.6 887.2,337.3 887.2,337.3 907.4,325.6" fill="#e0d0b0" stroke="#2b2d42" stroke-width="1.5" />
    <polygon points="1004.7,494.2 1004.7,494.2 984.5,505.8 984.5,505.8" fill="#e0d0b0" stroke="#2b2d42" stroke-width="1.5" />
    <polygon points="1004.7,505.8 984.5,494.2 887.2,662.7 907.4,674.4" fill="#f0e4cc" stroke="#2b2d42" stroke-width="1.5" />
    <polygon points="897.3,680.2 897.3,656.9 702.7,656.9 702.7,680.2" fill="#f0e4cc" stroke="#2b2d42" stroke-width="1.5" />
    <polygon points="692.6,674.4 712.8,662.7 615.5,494.2 595.3,505.8" fill="#f0e4cc" stroke="#2b2d42" stroke-width="1.5" />
    <polygon points="595.3,494.2 615.5,505.8 712.8,337.3 692.6,325.6" fill="#f0e4cc" stroke="#2b2d42" stroke-width="1.5" />
    <polygon points="702.7,319.8 702.7,343.1 897.3,343.1 897.3,319.8" fill="#f0e4cc" stroke="#2b2d42" stroke-width="1.5" />
    <polygon points="907.4,325.6 887.2,337.3 984.5,505.8 1004.7,494.2" fill="#f0e4cc" stroke="#2b2d42" stroke-width="1.5" />
    <polygon points="938.7,481.9 920.4,513.7 927.9,518.1 946.3,486.3" fill="#c08060" stroke="#2b2d42" stroke-width="1.5" />
    <polygon points="746.3,629.2 727.9,597.4 720.4,601.8 738.7,633.5" fill="#c08060" stroke="#2b2d42" stroke-width="1.5" />
    <polygon points="661.3,518.1 679.6,486.3 672.1,481.9 653.7,513.7" fill="#c08060" stroke="#2b2d42" stroke-width="1.5" />
    <polygon points="715.0,388.9 751.7,388.9 751.7,380.2 715.0,380.2" fill="#c08060" stroke="#2b2d42" stroke-width="1.5" />
    <polygon points="853.7,370.8 872.1,402.6 879.6,398.2 861.3,366.5" fill="#c08060" stroke="#2b2d42" stroke-width="1.5" />
    <polygon points="872.1,597.4 853.7,629.2 861.3,633.5 879.6,601.8" fill="#c08060" stroke="#2b2d42" stroke-width="1.5" />
    <polygon points="885.0,611.1 848.3,611.1 848.3,619.8 885.0,619.8" fill="#c08060" stroke="#2b2d42" stroke-width="1.5" />
    <polygon points="751.7,611.1 715.0,611.1 715.0,619.8 751.7,619.8" fill="#c08060" stroke="#2b2d42" stroke-width="1.5" />
    <polygon points="679.6,513.7 661.3,481.9 653.7,486.3 672.1,518.1" fill="#c08060" stroke="#2b2d42" stroke-width="1.5" />
    <polygon points="727.9,402.6 746.3,370.8 738.7,366.5 720.4,398.2" fill="#c08060" stroke="#2b2d42" stroke-width="1.5" />
    <polygon points="848.3,388.9 885.0,388.9 885.0,380.2 848.3,380.2" fill="#c08060" stroke="#2b2d42" stroke-width="1.5" />
    <polygon points="920.4,486.3 938.7,518.1 946.3,513.7 927.9,481.9" fill="#c08060" stroke="#2b2d42" stroke-width="1.5" />
    <polygon points="822.7,481.7 822.7,518.3 830.4,518.3 830.4,481.7" fill="#c08060" stroke="#2b2d42" stroke-width="1.5" />
    <polygon points="827.2,510.5 795.5,528.8 799.3,535.5 831.1,517.1" fill="#c08060" stroke="#2b2d42" stroke-width="1.5" />
    <polygon points="804.5,528.8 772.8,510.5 768.9,517.1 800.7,535.5" fill="#c08060" stroke="#2b2d42" stroke-width="1.5" />
    <polygon points="777.3,518.3 777.3,481.7 769.6,481.7 769.6,518.3" fill="#c08060" stroke="#2b2d42" stroke-width="1.5" />
    <polygon points="772.8,489.5 804.5,471.2 800.7,464.5 768.9,482.9" fill="#c08060" stroke="#2b2d42" stroke-width="1.5" />
    <polygon points="795.5,471.2 827.2,489.5 831.1,482.9 799.3,464.5" fill="#c08060" stroke="#2b2d42" stroke-width="1.5" />
    <polygon data-role="hub" data-id="HUB" points="826.5,500.0 813.3,523.0 813.3,523.0 826.5,500.0" fill="#e8d8c0" stroke="#2b2d42" stroke-width="1.5" />
    <polygon points="813.3,523.0 786.7,523.0 786.7,523.0 813.3,523.0" fill="#e8d8c0" stroke="#2b2d42" stroke-width="1.5" />
    <polygon points="786.7,523.0 773.5,500.0 773.5,500.0 786.7,523.0" fill="#dcc8a8" stroke="#2b2d42" stroke-width="1.5" />
    <polygon points="773.5,500.0 786.7,477.0 786.7,477.0 773.5,500.0" fill="#dcc8a8" stroke="#2b2d42" stroke-width="1.5" />
    <polygon points="786.7,477.0 813.3,477.0 813.3,477.0 786.7,477.0" fill="#dcc8a8" stroke="#2b2d42" stroke-width="1.5" />
    <polygon points="813.3,477.0 826.5,500.0 826.5,500.0 813.3,477.0" fill="#e8d8c0" stroke="#2b2d42" stroke-width="1.5" />
    <polygon points="826.5,500.0 813.3,523.0 786.7,523.0 773.5,500.0 786.7,477.0 813.3,477.0" fill="#f5ecd8" stroke="#2b2d42" stroke-width="1.5" />
    <g data-role="dimension">
        <line x1="400.0" y1="950.0" x2="1200.0" y2="950.0" stroke="#3d5a80" stroke-width="1.2" />
        <line x1="400.0" y1="950.0" x2="1200.0" y2="950.0" stroke="#3d5a80" stroke-width="1.2" marker-start="url(#arrowhead)" marker-end="url(#arrowhead)" />
        <text x="800.0" y="942.0" text-anchor="middle" font-family="sans-serif" font-size="13" font-weight="bold" fill="#1d3557">MAX DIAGONAL SPAN: 10.0 FT</text>
    </g>
    <g data-role="dimension">
        <line x1="1240.0" y1="500.0" x2="1040.0" y2="846.4101615137754" stroke="#3d5a80" stroke-width="1.2" />
        <line x1="1240.0" y1="500.0" x2="1040.0" y2="846.4101615137754" stroke="#3d5a80" stroke-width="1.2" marker-start="url(#arrowhead)" marker-end="url(#arrowhead)" />
        <text x="1125.0" y="673.2050807568877" text-anchor="middle" transform="rotate(-90,1125.0,673.2050807568877)" font-family="sans-serif" font-size="13" font-weight="bold" fill="#1d3557">POST ON-CENTRE: 5.0 FT</text>
    </g>
    <g data-role="dimension">
        <line x1="800.0" y1="470.0" x2="620.0" y2="320.0" stroke="#1d3557" stroke-width="1" stroke-dasharray="2,2" />
        <circle cx="800.0" cy="470.0" r="3" fill="#1d3557" />
        <text x="615.0" y="324.0" text-anchor="end" font-family="sans-serif" font-size="11" font-weight="bold" fill="#1d3557">6x6 WESTERN RED CEDAR HUB</text>
    </g>
    <g data-role="dimension">
        <line x1="1200.0" y1="480.0" x2="1320.0" y2="400.0" stroke="#1d3557" stroke-width="1" stroke-dasharray="2,2" />
        <circle cx="1200.0" cy="480.0" r="3" fill="#1d3557" />
        <text x="1325.0" y="404.0" text-anchor="start" font-family="sans-serif" font-size="11" font-weight="bold" fill="#1d3557">6x6 TIMBER POST (M01)</text>
    </g>
    <g transform="translate(100, 100)" font-family="monospace" fill="#1d3557">
        <rect x="-10" y="-20" width="320" height="90" fill="none" stroke="#2b2d42" stroke-width="1" stroke-dasharray="3,3" />
        <text x="0" y="0" font-size="14" font-weight="bold">FABRICATION DATA (PLAN):</text>
        <text x="0" y="25" font-size="12">BEAM RING FLAT MITER: 30.00°</text>
        <text x="0" y="45" font-size="12">LAYOUT TYPE: EQUILATERAL HEXAGON</text>
    </g>
    <g data-role="title-block" transform="translate(1100, 850)">
        <rect width="400" height="150" fill="#ffffff" stroke="#2b2d42" stroke-width="1.8" />
        <line x1="0" y1="40" x2="400" y2="40" stroke="#2b2d42" stroke-width="1" />
        <text x="15" y="28" font-family="sans-serif" font-size="18" font-weight="bold" fill="#1d3557">DRAWING PLAN VIEW</text>
        <text x="15" y="60" font-family="sans-serif" font-size="11" fill="#1d3557">STRUCTURE: PERGOLA</text>
        <text x="15" y="80" font-family="sans-serif" font-size="11" fill="#1d3557">JURISDICTION: SAANICH, BC (BCBC COMPLIANT)</text>
        <text x="15" y="100" font-family="sans-serif" font-size="11" fill="#1d3557">SOURCE HASH: bda41784</text>
        <text x="15" y="120" font-family="sans-serif" font-size="11" fill="#1d3557">DATE: 2026-05-23 | SCALE: 1/2" = 1'-0"</text>
    </g>
    <!-- VALIDATOR_ANCHORS: 4:12 28.71° 9.1° -->
    <!-- SAW_SETTINGS: {"miter_deg": 28.71, "bevel_deg": 9.1} -->
    <!-- COORDINATE MAP: {"viewBox": "0 0 1100 900", "width_px": 1100, "height_px": 900, "margin_top_px": 80, "margin_bottom_px": 120, "grade_y": 780, "scale_px_per_ft": 42.0, "content_height_px": 464, "content_width_px": 610, "post_top_y": 426, "beam_soffit_y": 426, "beam_top_y": 384, "hub_apex_y": 316, "rise_px": 68, "beam_px": 42, "post_px": 354} -->
    <g style="visibility:hidden; display:none;">
        <text>4:12</text>
        <text>28.71</text>
        <text>9.1</text>
    </g>
</svg>